<svg width="100" height="122" viewBox="0 0 100 122" fill="none" xmlns="http://www.w3.org/2000/svg">
<path d="M6.06061 103.03H98.6727C98.6727 103.03 96.9697 106.061 96.9697 109.091C96.9697 112.121 98.6727 115.151 98.6727 115.151H12.1212C10.5138 115.151 8.9723 114.513 7.83572 113.376C6.69914 112.24 6.06061 110.698 6.06061 109.091V103.03Z" fill="url(#paint0_linear_935_536)"/>
<path d="M0 15.1515C0 11.1331 1.59632 7.27924 4.43778 4.43778C7.27924 1.59632 11.1331 0 15.1515 0H84.8485C86.8382 0 88.8085 0.391906 90.6467 1.15334C92.485 1.91478 94.1553 3.03083 95.5622 4.43778C96.9692 5.84472 98.0852 7.51501 98.8467 9.35328C99.6081 11.1915 100 13.1618 100 15.1515V101.515C100 102.721 99.5211 103.877 98.6687 104.729C97.8162 105.582 96.6601 106.061 95.4545 106.061H9.09091C9.09091 107.668 9.72944 109.21 10.866 110.346C12.0026 111.483 13.5441 112.121 15.1515 112.121H95.4545C96.6601 112.121 97.8162 112.6 98.6687 113.453C99.5211 114.305 100 115.461 100 116.667C100 117.872 99.5211 119.028 98.6687 119.881C97.8162 120.733 96.6601 121.212 95.4545 121.212H15.1515C11.1331 121.212 7.27924 119.616 4.43778 116.774C1.59632 113.933 0 110.079 0 106.061V15.1515Z" fill="url(#paint1_linear_935_536)"/>
<path d="M18.1818 24.2422C18.1818 22.6349 18.8204 21.0933 19.9569 19.9568C21.0935 18.8202 22.6351 18.1816 24.2424 18.1816H72.7273C74.3347 18.1816 75.8762 18.8202 77.0128 19.9568C78.1494 21.0933 78.7879 22.6349 78.7879 24.2422V36.3635C78.7879 37.9708 78.1494 39.5124 77.0128 40.649C75.8762 41.7855 74.3347 42.4241 72.7273 42.4241H24.2424C22.6351 42.4241 21.0935 41.7855 19.9569 40.649C18.8204 39.5124 18.1818 37.9708 18.1818 36.3635V24.2422Z" fill="url(#paint2_linear_935_536)"/>
<defs>
<linearGradient id="paint0_linear_935_536" x1="49.5394" y1="111.515" x2="49.5394" y2="96.9697" gradientUnits="userSpaceOnUse">
<stop stop-color="#9DEAFF"/>
<stop offset="0.716" stop-color="#58AAFE"/>
</linearGradient>
<linearGradient id="paint1_linear_935_536" x1="34.503" y1="22.6788" x2="52.6121" y2="153.382" gradientUnits="userSpaceOnUse">
<stop stop-color="#20AC9D"/>
<stop offset="1" stop-color="#2052CB"/>
</linearGradient>
<linearGradient id="paint2_linear_935_536" x1="39.0849" y1="14.0241" x2="66.9879" y2="57.4422" gradientUnits="userSpaceOnUse">
<stop stop-color="#9FF0F9"/>
<stop offset="1" stop-color="#6CE0FF"/>
</linearGradient>
</defs>
</svg>
