<svg width="100" height="101" viewBox="0 0 100 101" fill="none" xmlns="http://www.w3.org/2000/svg">
<path d="M59.2329 18.7092C66.302 18.7076 73.2486 20.5546 79.3833 24.0669C85.518 27.5792 90.6277 32.6347 94.205 38.7317C97.7824 44.8287 99.7032 51.7552 99.7768 58.8239C99.8504 65.8925 98.0742 72.8575 94.6245 79.0277L99.5887 92.0119C100.001 93.0912 100.106 94.264 99.8911 95.3994C99.6761 96.5347 99.1499 97.588 98.3712 98.4418C97.5925 99.2955 96.5918 99.9161 95.481 100.234C94.3701 100.553 93.1927 100.556 92.0801 100.244L76.5639 95.8972C71.0697 98.4931 65.0622 99.8207 58.9857 99.7816C52.9092 99.7425 46.9192 98.3378 41.4589 95.6714C35.9985 93.005 31.2075 89.145 27.4402 84.3771C23.6729 79.6093 21.0257 74.0554 19.6945 68.1264C18.3633 62.1974 18.382 56.045 19.7494 50.1242C21.1168 44.2034 23.7978 38.6658 27.5941 33.921C31.3904 29.1762 36.2049 25.3455 41.6814 22.7125C47.1579 20.0794 53.1563 18.7112 59.2329 18.7092Z" fill="url(#paint0_radial_935_406)"/>
<path d="M40.7608 1.27976e-07C33.6923 -0.000561466 26.7465 1.8472 20.6126 5.35995C14.4787 8.87269 9.36999 13.9283 5.79333 20.0251C2.21668 26.122 0.296424 33.0481 0.223116 40.1162C0.149808 47.1843 1.92599 54.1488 5.37542 60.3185L0.411249 73.3027C-0.00142043 74.382 -0.1061 75.5548 0.10889 76.6901C0.32388 77.8255 0.850084 78.8788 1.6288 79.7325C2.40751 80.5863 3.40811 81.2069 4.51896 81.5251C5.62981 81.8433 6.80724 81.8466 7.91988 81.5347L23.4298 77.1879C28.9238 79.7838 34.931 81.1113 41.0073 81.0724C47.0835 81.0334 53.0732 79.6289 58.5334 76.9628C63.9937 74.2967 68.7847 70.4372 72.5521 65.6698C76.3195 60.9023 78.9669 55.3489 80.2985 49.4202C81.6302 43.4916 81.6119 37.3394 80.2452 31.4187C78.8784 25.4981 76.1981 19.9605 72.4025 15.2154C68.6069 10.4703 63.7932 6.63929 58.3172 4.00559C52.8413 1.3719 46.8371 0.00295053 40.7608 1.27976e-07Z" fill="url(#paint1_linear_935_406)"/>
<defs>
<radialGradient id="paint0_radial_935_406" cx="0" cy="0" r="1" gradientUnits="userSpaceOnUse" gradientTransform="translate(40.5237 40.5366) rotate(49.3987) scale(57.4968)">
<stop offset="0.63" stop-color="#3D35B1"/>
<stop offset="0.85" stop-color="#6553C9"/>
<stop offset="1" stop-color="#7660D3"/>
</radialGradient>
<linearGradient id="paint1_linear_935_406" x1="-0.0128278" y1="7.32949e-07" x2="81.7589" y2="81.3102" gradientUnits="userSpaceOnUse">
<stop stop-color="#0FAFFF"/>
<stop offset="1" stop-color="#2764E7"/>
</linearGradient>
</defs>
</svg>
