<svg width="90" height="98" viewBox="0 0 90 98" fill="none" xmlns="http://www.w3.org/2000/svg">
<path d="M83.0769 0.384766C74.8144 0.384766 66.8903 3.66704 61.0478 9.50951C55.2053 15.352 51.9231 23.2761 51.9231 31.5386V41.9232C51.9231 43.7593 52.6525 45.5202 53.9508 46.8186C55.2491 48.1169 57.01 48.8463 58.8461 48.8463H65.3815L65.2431 50.1686C64.9246 53.2978 64.4884 57.5209 64.0523 61.9378C63.2008 70.6263 62.3077 80.374 62.3077 83.4617C62.3077 87.1339 63.7665 90.6557 66.3631 93.2524C68.9598 95.849 72.4816 97.3078 76.1538 97.3078C79.8261 97.3078 83.3479 95.849 85.9445 93.2524C88.5412 90.6557 90 87.1339 90 83.4617C90 80.374 89.1069 70.6263 88.2554 61.9309C87.7437 56.7597 87.213 51.5905 86.6631 46.4232L86.5384 45.1978V3.8463C86.5384 2.92825 86.1737 2.04779 85.5246 1.39863C84.8754 0.749462 83.995 0.384766 83.0769 0.384766Z" fill="url(#paint0_linear_935_566)"/>
<path d="M36.1592 0.758623C36.6173 0.985711 37.0194 1.31146 37.3366 1.71247C37.6539 2.11348 37.8783 2.57978 37.9938 3.07785C38.1184 3.62478 41.5384 18.2602 41.5384 28.0771C41.5384 34.654 38.4784 40.5178 33.7154 44.3186C31.9846 45.7032 31.1538 47.2125 31.1538 48.4725V51.8371C31.1538 51.9986 31.1631 52.1509 31.1815 52.294C31.4169 54.0109 32.2685 60.3871 33.0646 66.9986C33.8469 73.4855 34.6154 80.5609 34.6154 83.4617C34.6154 87.1339 33.1566 90.6557 30.5599 93.2524C27.9633 95.849 24.4415 97.3078 20.7692 97.3078C17.097 97.3078 13.5752 95.849 10.9785 93.2524C8.38186 90.6557 6.92307 87.1339 6.92307 83.4617C6.92307 80.554 7.69154 73.4925 8.47384 66.9986C9.27 60.3871 10.1215 54.0109 10.3569 52.294L10.3846 51.8371V48.4725C10.3846 47.2125 9.55384 45.7032 7.82308 44.3186C5.38257 42.3732 3.41189 39.9027 2.0575 37.0909C0.703122 34.279 -0.000136565 31.1981 1.98916e-08 28.0771C1.98916e-08 18.2948 3.39231 3.73555 3.54461 3.08478C3.72459 2.31521 4.16 1.62932 4.77984 1.13899C5.39967 0.648649 6.16736 0.382792 6.95769 0.384777C8.89615 0.384777 10.4677 1.95631 10.4677 3.89478V24.6502C10.4404 25.1177 10.5092 25.5858 10.6699 26.0257C10.8306 26.4656 11.0797 26.8679 11.4019 27.2077C11.7241 27.5476 12.1126 27.8177 12.5433 28.0016C12.974 28.1855 13.4378 28.2791 13.9061 28.2768C14.3744 28.2744 14.8373 28.1761 15.2661 27.9878C15.6949 27.7996 16.0806 27.5255 16.3994 27.1824C16.7181 26.8393 16.9632 26.4345 17.1194 25.9931C17.2756 25.5516 17.3397 25.0828 17.3077 24.6155V3.84631C17.3077 2.92826 17.6724 2.0478 18.3215 1.39864C18.9707 0.749473 19.8512 0.384777 20.7692 0.384777C21.6873 0.384777 22.5677 0.749473 23.2169 1.39864C23.8661 2.0478 24.2308 2.92826 24.2308 3.84631V24.7955C24.25 25.7044 24.6296 26.5684 25.2859 27.1975C25.9422 27.8265 26.8215 28.169 27.7304 28.1498C28.6393 28.1305 29.5032 27.751 30.1323 27.0946C30.7613 26.4383 31.1039 25.559 31.0846 24.6502V3.88093C31.0846 1.94939 32.6492 0.384777 34.5877 0.384777C34.74 0.384777 35.4185 0.384777 36.1592 0.758623Z" fill="url(#paint1_linear_935_566)"/>
<defs>
<linearGradient id="paint0_linear_935_566" x1="46.0661" y1="6.44246" x2="136.371" y2="40.1855" gradientUnits="userSpaceOnUse">
<stop stop-color="#6CE0FF"/>
<stop offset="1" stop-color="#0067BF"/>
</linearGradient>
<linearGradient id="paint1_linear_935_566" x1="-6.39" y1="6.44247" x2="89.8823" y2="45.6825" gradientUnits="userSpaceOnUse">
<stop stop-color="#6CE0FF"/>
<stop offset="1" stop-color="#0067BF"/>
</linearGradient>
</defs>
</svg>
