<svg width="100" height="88" viewBox="0 0 100 88" fill="none" xmlns="http://www.w3.org/2000/svg">
<path d="M46.1764 8.06633C43.6823 5.52091 40.7069 3.49692 37.4233 2.11213C34.1398 0.727335 30.6135 0.00939769 27.0499 9.16456e-05C23.4863 -0.0092144 19.9564 0.690297 16.6656 2.05792C13.3748 3.42554 10.3889 5.43397 7.88157 7.96633C-2.66872 18.6229 -2.61872 35.9421 7.98157 46.6487L47.2139 86.2748C48.839 87.9186 51.4765 87.9186 53.1016 86.2748L92.1339 46.8737C97.1946 41.7038 100.02 34.7515 99.9999 27.517C99.98 20.2825 97.1167 13.3459 92.0277 8.20383C89.5302 5.65504 86.5507 3.62849 83.2625 2.24214C79.9744 0.855796 76.4433 0.137351 72.8749 0.128627C69.3065 0.119902 65.7719 0.821073 62.4771 2.19132C59.1822 3.56157 56.1928 5.57353 53.6828 8.11008L49.9577 11.8789L46.1764 8.06633Z" fill="url(#paint0_linear_935_563)"/>
<defs>
<linearGradient id="paint0_linear_935_563" x1="-21.8755" y1="-24.9971" x2="31.7197" y2="87.4248" gradientUnits="userSpaceOnUse">
<stop stop-color="#F97DBD"/>
<stop offset="1" stop-color="#D7257D"/>
</linearGradient>
</defs>
</svg>
