<svg width="100" height="90" viewBox="0 0 100 90" fill="none" xmlns="http://www.w3.org/2000/svg">
<path d="M25 11.6071C25 8.52874 26.2229 5.57641 28.3997 3.39965C30.5764 1.22289 33.5287 0 36.6071 0H63.3929C66.4713 0 69.4236 1.22289 71.6003 3.39965C73.7771 5.57641 75 8.52874 75 11.6071V19.6429H67.8571V11.6071C67.8571 9.14286 65.8571 7.14286 63.3929 7.14286H36.6071C34.1429 7.14286 32.1429 9.14286 32.1429 11.6071V19.6429H25V11.6071Z" fill="url(#paint0_linear_935_410)"/>
<path d="M11.6071 89.2857C10.0829 89.2857 8.57353 88.9855 7.16528 88.4021C5.75704 87.8188 4.47748 86.9639 3.39965 85.886C2.32183 84.8082 1.46685 83.5286 0.883541 82.1204C0.300227 80.7122 0 79.2028 0 77.6785V44.6428H100V77.6785C100 79.2028 99.6998 80.7122 99.1165 82.1204C98.5331 83.5286 97.6782 84.8082 96.6003 85.886C95.5225 86.9639 94.243 87.8188 92.8347 88.4021C91.4265 88.9855 89.9171 89.2857 88.3929 89.2857H11.6071Z" fill="url(#paint1_linear_935_410)"/>
<path d="M0 29.4643C0 26.3859 1.22289 23.4336 3.39965 21.2568C5.57641 19.0801 8.52874 17.8572 11.6071 17.8572H88.3929C91.4713 17.8572 94.4236 19.0801 96.6003 21.2568C98.7771 23.4336 100 26.3859 100 29.4643V46.4286H0V29.4643Z" fill="url(#paint2_linear_935_410)"/>
<path d="M71.4285 35.7144C72.3757 35.7144 73.2842 36.0906 73.9539 36.7604C74.6237 37.4302 75 38.3386 75 39.2858V53.5715C75 54.5187 74.6237 55.4271 73.9539 56.0969C73.2842 56.7667 72.3757 57.1429 71.4285 57.1429C70.4813 57.1429 69.5729 56.7667 68.9032 56.0969C68.2334 55.4271 67.8571 54.5187 67.8571 53.5715V39.2858C67.8571 38.3386 68.2334 37.4302 68.9032 36.7604C69.5729 36.0906 70.4813 35.7144 71.4285 35.7144Z" fill="url(#paint3_linear_935_410)"/>
<path d="M28.5714 35.7144C29.5186 35.7144 30.427 36.0906 31.0968 36.7604C31.7666 37.4302 32.1429 38.3386 32.1429 39.2858V53.5715C32.1429 54.5187 31.7666 55.4271 31.0968 56.0969C30.427 56.7667 29.5186 57.1429 28.5714 57.1429C27.6242 57.1429 26.7158 56.7667 26.046 56.0969C25.3763 55.4271 25 54.5187 25 53.5715V39.2858C25 38.3386 25.3763 37.4302 26.046 36.7604C26.7158 36.0906 27.6242 35.7144 28.5714 35.7144Z" fill="url(#paint4_linear_935_410)"/>
<defs>
<linearGradient id="paint0_linear_935_410" x1="7.14286" y1="-1.90005e-07" x2="9.72857" y2="17.1429" gradientUnits="userSpaceOnUse">
<stop stop-color="#B9C0C7"/>
<stop offset="1" stop-color="#70777D"/>
</linearGradient>
<linearGradient id="paint1_linear_935_410" x1="-6.25" y1="27.9035" x2="3.82857" y2="132.9" gradientUnits="userSpaceOnUse">
<stop offset="0.125" stop-color="#F97DBD"/>
<stop offset="1" stop-color="#D7257D"/>
</linearGradient>
<linearGradient id="paint2_linear_935_410" x1="-6.25" y1="7.14289" x2="-3.77857" y2="75.5179" gradientUnits="userSpaceOnUse">
<stop stop-color="#F97DBD"/>
<stop offset="1" stop-color="#D7257D"/>
</linearGradient>
<linearGradient id="paint3_linear_935_410" x1="7.14283" y1="35.7144" x2="10.2071" y2="54.3358" gradientUnits="userSpaceOnUse">
<stop stop-color="#EFEFEF"/>
<stop offset="1" stop-color="#DADADA"/>
</linearGradient>
<linearGradient id="paint4_linear_935_410" x1="7.14286" y1="35.7144" x2="10.2071" y2="54.3358" gradientUnits="userSpaceOnUse">
<stop stop-color="#EFEFEF"/>
<stop offset="1" stop-color="#DADADA"/>
</linearGradient>
</defs>
</svg>
