<svg width="100" height="75" viewBox="0 0 100 75" fill="none" xmlns="http://www.w3.org/2000/svg">
<path d="M20.8333 58.3332L50 54.1665L79.1667 58.3332H81.3667C82.6583 58.3332 83.9333 58.6332 85.0917 59.2165L96.275 64.7998C97.3944 65.361 98.3357 66.2225 98.9935 67.288C99.6513 68.3535 99.9998 69.581 100 70.8332H0C0.000165476 69.581 0.348651 68.3535 1.00649 67.288C1.66432 66.2225 2.60558 65.361 3.725 64.7998L14.9083 59.2165C16.0646 58.637 17.3399 58.3346 18.6333 58.3332H20.8333Z" fill="url(#paint0_linear_935_558)"/>
<path d="M4.16667 66.6665C3.0616 66.6665 2.00179 67.1055 1.22039 67.8869C0.438988 68.6683 0 69.7281 0 70.8332C0 71.9382 0.438988 72.9981 1.22039 73.7795C2.00179 74.5609 3.0616 74.9998 4.16667 74.9998H95.8333C96.9384 74.9998 97.9982 74.5609 98.7796 73.7795C99.561 72.9981 100 71.9382 100 70.8332C100 69.7281 99.561 68.6683 98.7796 67.8869C97.9982 67.1055 96.9384 66.6665 95.8333 66.6665H4.16667Z" fill="url(#paint1_linear_935_558)"/>
<path d="M8.33334 12.5C8.33334 9.18479 9.6503 6.00537 11.9945 3.66116C14.3387 1.31696 17.5181 0 20.8333 0H79.1667C82.4819 0 85.6613 1.31696 88.0055 3.66116C90.3497 6.00537 91.6667 9.18479 91.6667 12.5V45.8333C91.6667 49.1485 90.3497 52.328 88.0055 54.6722C85.6613 57.0164 82.4819 58.3333 79.1667 58.3333H20.8333C17.5181 58.3333 14.3387 57.0164 11.9945 54.6722C9.6503 52.328 8.33334 49.1485 8.33334 45.8333V12.5Z" fill="url(#paint2_linear_935_558)"/>
<defs>
<linearGradient id="paint0_linear_935_558" x1="100" y1="74.7998" x2="91.2583" y2="35.4748" gradientUnits="userSpaceOnUse">
<stop stop-color="#63686E"/>
<stop offset="1" stop-color="#889096"/>
</linearGradient>
<linearGradient id="paint1_linear_935_558" x1="100" y1="74.4082" x2="98.7167" y2="59.0332" gradientUnits="userSpaceOnUse">
<stop stop-color="#889096"/>
<stop offset="1" stop-color="#AAB3BD"/>
</linearGradient>
<linearGradient id="paint2_linear_935_558" x1="66.6667" y1="2.75485e-08" x2="70.0667" y2="66.725" gradientUnits="userSpaceOnUse">
<stop stop-color="#6CE0FF"/>
<stop offset="1" stop-color="#4894FE"/>
</linearGradient>
</defs>
</svg>
