<svg width="100" height="134" viewBox="0 0 100 134" fill="none" xmlns="http://www.w3.org/2000/svg">
<path d="M58.4772 133.296C65.1843 132.796 70.8647 128.142 72.3982 121.721L80.4454 88.1125C80.5219 87.7928 80.6912 87.5029 80.9321 87.2791C93.5529 75.6317 100 62.5842 100 48.3432C100.007 21.6348 77.6252 0 50.0033 0C22.3815 0 0 21.6414 0 48.3366C0 62.5842 6.46043 75.6317 19.0879 87.2791C19.3288 87.5029 19.4981 87.7928 19.5746 88.1125L27.6018 121.715L27.9152 122.828C29.922 129.035 35.8957 133.336 42.7162 133.336H57.2838L58.4772 133.296Z" fill="url(#paint0_radial_935_445)"/>
<path d="M58.4772 133.296C65.1843 132.796 70.8647 128.142 72.3982 121.721L80.4454 88.1125C80.5219 87.7928 80.6912 87.5029 80.9321 87.2791C93.5529 75.6317 100 62.5842 100 48.3432C100.007 21.6348 77.6252 0 50.0033 0C22.3815 0 0 21.6414 0 48.3366C0 62.5842 6.46043 75.6317 19.0879 87.2791C19.3288 87.5029 19.4981 87.7928 19.5746 88.1125L27.6018 121.715L27.9152 122.828C29.922 129.035 35.8957 133.336 42.7162 133.336H57.2838L58.4772 133.296Z" fill="url(#paint1_linear_935_445)"/>
<path d="M58.4772 133.296C65.1843 132.796 70.8647 128.142 72.3982 121.721L80.4454 88.1125C80.5219 87.7928 80.6912 87.5029 80.9321 87.2791C93.5529 75.6317 100 62.5842 100 48.3432C100.007 21.6348 77.6252 0 50.0033 0C22.3815 0 0 21.6414 0 48.3366C0 62.5842 6.46043 75.6317 19.0879 87.2791C19.3288 87.5029 19.4981 87.7928 19.5746 88.1125L27.6018 121.715L27.9152 122.828C29.922 129.035 35.8957 133.336 42.7162 133.336H57.2838L58.4772 133.296Z" fill="url(#paint2_radial_935_445)" fill-opacity="0.2"/>
<path d="M58.4772 133.296C65.1843 132.796 70.8647 128.142 72.3982 121.721L80.4454 88.1125C80.5219 87.7928 80.6912 87.5029 80.9321 87.2791C93.5529 75.6317 100 62.5842 100 48.3432C100.007 21.6348 77.6252 0 50.0033 0C22.3815 0 0 21.6414 0 48.3366C0 62.5842 6.46043 75.6317 19.0879 87.2791C19.3288 87.5029 19.4981 87.7928 19.5746 88.1125L27.6018 121.715L27.9152 122.828C29.922 129.035 35.8957 133.336 42.7162 133.336H57.2838L58.4772 133.296Z" fill="url(#paint3_radial_935_445)" fill-opacity="0.2"/>
<path d="M58.4772 133.296C65.1843 132.796 70.8647 128.142 72.3982 121.721L80.4454 88.1125C80.5219 87.7928 80.6912 87.5029 80.9321 87.2791C93.5529 75.6317 100 62.5842 100 48.3432C100.007 21.6348 77.6252 0 50.0033 0C22.3815 0 0 21.6414 0 48.3366C0 62.5842 6.46043 75.6317 19.0879 87.2791C19.3288 87.5029 19.4981 87.7928 19.5746 88.1125L27.6018 121.715L27.9152 122.828C29.922 129.035 35.8957 133.336 42.7162 133.336H57.2838L58.4772 133.296Z" fill="url(#paint4_radial_935_445)" fill-opacity="0.2"/>
<path d="M58.4772 133.296C65.1843 132.796 70.8647 128.142 72.3982 121.721L80.4454 88.1125C80.5219 87.7928 80.6912 87.5029 80.9321 87.2791C93.5529 75.6317 100 62.5842 100 48.3432C100.007 21.6348 77.6252 0 50.0033 0C22.3815 0 0 21.6414 0 48.3366C0 62.5842 6.46043 75.6317 19.0879 87.2791C19.3288 87.5029 19.4981 87.7928 19.5746 88.1125L27.6018 121.715L27.9152 122.828C29.922 129.035 35.8957 133.336 42.7162 133.336H57.2838L58.4772 133.296Z" fill="url(#paint5_radial_935_445)" fill-opacity="0.2"/>
<path d="M55.1769 58.5107C55.1769 55.6496 52.8576 53.3303 49.9966 53.3303C47.1355 53.3303 44.8162 55.6496 44.8162 58.5107V104.474C44.8162 107.335 47.1355 109.654 49.9966 109.654C52.8576 109.654 55.1769 107.335 55.1769 104.474V58.5107Z" fill="url(#paint6_linear_935_445)"/>
<path d="M55.1769 31.8359C55.1769 28.9748 52.8576 26.6555 49.9966 26.6555C47.1355 26.6555 44.8162 28.9748 44.8162 31.8359V41.4698C44.8162 44.3309 47.1355 46.6502 49.9966 46.6502C52.8576 46.6502 55.1769 44.3309 55.1769 41.4698V31.8359Z" fill="url(#paint7_linear_935_445)"/>
<path d="M20.7547 48.7894C19.783 47.8169 19.2375 46.4982 19.2381 45.1235C19.2388 43.7487 19.7855 42.4306 20.758 41.4589C21.7305 40.4873 23.0492 39.9418 24.4239 39.9424C25.7987 39.943 27.1168 40.4897 28.0885 41.4622L34.8956 48.276C35.8672 49.2477 36.4131 50.5655 36.4131 51.9396C36.4131 53.3137 35.8672 54.6315 34.8956 55.6032C33.924 56.5748 32.6061 57.1207 31.232 57.1207C29.8579 57.1207 28.5401 56.5748 27.5684 55.6032L20.7547 48.7894Z" fill="url(#paint8_linear_935_445)"/>
<path d="M79.2652 48.7894C80.2369 47.8169 80.7824 46.4982 80.7818 45.1235C80.7811 43.7487 80.2344 42.4306 79.2619 41.4589C78.2894 40.4873 76.9707 39.9418 75.596 39.9424C74.2212 39.943 72.903 40.4897 71.9314 41.4622L65.1243 48.276C64.1924 49.2549 63.6799 50.5591 63.6962 51.9105C63.7125 53.2618 64.2563 54.5533 65.2115 55.5094C66.1667 56.4655 67.4577 57.0104 68.809 57.0279C70.1604 57.0455 71.4651 56.5342 72.4448 55.6032L79.2652 48.7894Z" fill="url(#paint9_linear_935_445)"/>
<path d="M25.6018 113.321H74.4117L76.8119 103.321H23.2016L25.6018 113.321Z" fill="url(#paint10_linear_935_445)"/>
<defs>
<radialGradient id="paint0_radial_935_445" cx="0" cy="0" r="1" gradientUnits="userSpaceOnUse" gradientTransform="translate(16.6678 13.0809) rotate(73.984) scale(119.167 181.394)">
<stop stop-color="#FFE06B"/>
<stop offset="0.376" stop-color="#FFA43D"/>
<stop offset="1" stop-color="#E67505"/>
</radialGradient>
<linearGradient id="paint1_linear_935_445" x1="50.0033" y1="0" x2="50.0033" y2="133.336" gradientUnits="userSpaceOnUse">
<stop offset="0.792" stop-color="#D34719" stop-opacity="0"/>
<stop offset="0.835" stop-color="#D34719"/>
<stop offset="1" stop-color="#D34719" stop-opacity="0"/>
</linearGradient>
<radialGradient id="paint2_radial_935_445" cx="0" cy="0" r="1" gradientUnits="userSpaceOnUse" gradientTransform="translate(27.6818 53.1235) rotate(46.8183) scale(13.2653 10.606)">
<stop offset="0.165" stop-color="#741C06"/>
<stop offset="0.854" stop-color="#741C06" stop-opacity="0"/>
</radialGradient>
<radialGradient id="paint3_radial_935_445" cx="0" cy="0" r="1" gradientUnits="userSpaceOnUse" gradientTransform="translate(50.0033 38.4959) rotate(90) scale(16.7128 12.5346)">
<stop offset="0.165" stop-color="#741C06"/>
<stop offset="0.854" stop-color="#741C06" stop-opacity="0"/>
</radialGradient>
<radialGradient id="paint4_radial_935_445" cx="0" cy="0" r="1" gradientUnits="userSpaceOnUse" gradientTransform="translate(72.1915 52.6435) rotate(133.802) scale(15.9304 11.9479)">
<stop offset="0.165" stop-color="#741C06"/>
<stop offset="0.854" stop-color="#741C06" stop-opacity="0"/>
</radialGradient>
<radialGradient id="paint5_radial_935_445" cx="0" cy="0" r="1" gradientUnits="userSpaceOnUse" gradientTransform="translate(50.0033 78.0985) rotate(180) scale(12.7685 36.7747)">
<stop offset="0.165" stop-color="#741C06"/>
<stop offset="0.777" stop-color="#741C06" stop-opacity="0"/>
</radialGradient>
<linearGradient id="paint6_linear_935_445" x1="49.9966" y1="53.3303" x2="49.9966" y2="109.687" gradientUnits="userSpaceOnUse">
<stop stop-color="#FFF2BE"/>
<stop offset="0.437" stop-color="#FFD638"/>
</linearGradient>
<linearGradient id="paint7_linear_935_445" x1="44.8162" y1="36.6562" x2="55.1769" y2="36.6562" gradientUnits="userSpaceOnUse">
<stop stop-color="#FFF2BE"/>
<stop offset="1" stop-color="#FFD638"/>
</linearGradient>
<linearGradient id="paint8_linear_935_445" x1="24.3616" y1="52.103" x2="31.3287" y2="45.1358" gradientUnits="userSpaceOnUse">
<stop stop-color="#FFF2BE"/>
<stop offset="1" stop-color="#FFD638"/>
</linearGradient>
<linearGradient id="paint9_linear_935_445" x1="68.4245" y1="45.3958" x2="75.3383" y2="52.3096" gradientUnits="userSpaceOnUse">
<stop stop-color="#FFF2BE"/>
<stop offset="1" stop-color="#FFD638"/>
</linearGradient>
<linearGradient id="paint10_linear_935_445" x1="45.6431" y1="103.314" x2="51.9302" y2="119.975" gradientUnits="userSpaceOnUse">
<stop stop-color="#FFC7A3"/>
<stop offset="1" stop-color="#FF9C70"/>
</linearGradient>
</defs>
</svg>
