<svg width="100" height="90" viewBox="0 0 100 90" fill="none" xmlns="http://www.w3.org/2000/svg">
<path d="M50.0013 0C45.6916 0 41.5585 1.712 38.5111 4.75939C35.4637 7.80678 33.7517 11.9399 33.7517 16.2496C33.7517 20.5592 35.4637 24.6924 38.5111 27.7398C41.5585 30.7872 45.6916 32.4992 50.0013 32.4992C54.3109 32.4992 58.4441 30.7872 61.4915 27.7398C64.5389 24.6924 66.2509 20.5592 66.2509 16.2496C66.2509 11.9399 64.5389 7.80678 61.4915 4.75939C58.4441 1.712 54.3109 0 50.0013 0Z" fill="url(#paint0_radial_935_543)"/>
<path d="M15.0022 9.99951C11.0241 9.99951 7.20885 11.5798 4.39588 14.3928C1.58291 17.2058 0.00259399 21.021 0.00259399 24.9991C0.00259399 28.9773 1.58291 32.7925 4.39588 35.6055C7.20885 38.4184 11.0241 39.9987 15.0022 39.9987C18.9804 39.9987 22.7956 38.4184 25.6085 35.6055C28.4215 32.7925 30.0018 28.9773 30.0018 24.9991C30.0018 21.021 28.4215 17.2058 25.6085 14.3928C22.7956 11.5798 18.9804 9.99951 15.0022 9.99951Z" fill="url(#paint1_radial_935_543)"/>
<path d="M85.0004 9.99951C81.0223 9.99951 77.207 11.5798 74.3941 14.3928C71.5811 17.2058 70.0008 21.021 70.0008 24.9991C70.0008 28.9773 71.5811 32.7925 74.3941 35.6055C77.207 38.4184 81.0223 39.9987 85.0004 39.9987C88.9786 39.9987 92.7938 38.4184 95.6067 35.6055C98.4197 32.7925 100 28.9773 100 24.9991C100 21.021 98.4197 17.2058 95.6067 14.3928C92.7938 11.5798 88.9786 9.99951 85.0004 9.99951Z" fill="url(#paint2_radial_935_543)"/>
<path d="M66.9509 42.2086C64.7099 41.6083 62.3222 41.9227 60.313 43.0825C58.3037 44.2423 56.8373 46.1526 56.2362 48.3934L52.6763 61.6731C51.1314 67.4374 51.9397 73.5793 54.9233 78.7477C57.907 83.9161 62.8215 87.6875 68.5859 89.2324C74.3502 90.7772 80.4921 89.9689 85.6605 86.9853C90.8289 84.0016 94.6003 79.0871 96.1451 73.3228L99.7001 60.0381C100.3 57.7971 99.9859 55.4095 98.8261 53.4002C97.6663 51.3909 95.756 49.9245 93.5152 49.3234L66.9509 42.2086Z" fill="url(#paint3_radial_935_543)"/>
<path d="M33.0517 42.2098C35.292 41.6111 37.6784 41.9261 39.6865 43.0858C41.6947 44.2455 43.1603 46.1549 43.7614 48.3946L47.3214 61.6743C48.8262 67.4247 47.9943 73.537 45.0073 78.6761C42.0204 83.8153 37.1213 87.5636 31.3798 89.1025C25.6384 90.6414 19.5213 89.8458 14.3645 86.8894C9.20775 83.933 5.4304 79.0562 3.85748 73.324L0.297574 60.0393C0.000456709 58.9293 -0.0751239 57.7717 0.075147 56.6325C0.225418 55.4934 0.598597 54.3949 1.17338 53.4C1.74816 52.405 2.51328 51.533 3.42507 50.8338C4.33685 50.1345 5.37744 49.6217 6.48741 49.3246L33.0517 42.2098Z" fill="url(#paint4_radial_935_543)"/>
<path d="M36.2517 39.999C33.9311 39.999 31.7055 40.9209 30.0646 42.5618C28.4237 44.2027 27.5019 46.4282 27.5019 48.7488V67.4983C27.5019 73.4655 29.8724 79.1883 34.0918 83.4078C38.3113 87.6273 44.0341 89.9977 50.0013 89.9977C55.9685 89.9977 61.6913 87.6273 65.9108 83.4078C70.1303 79.1883 72.5007 73.4655 72.5007 67.4983V48.7488C72.5007 46.4282 71.5789 44.2027 69.938 42.5618C68.2971 40.9209 66.0715 39.999 63.751 39.999H36.2517Z" fill="url(#paint5_radial_935_543)"/>
<defs>
<radialGradient id="paint0_radial_935_543" cx="0" cy="0" r="1" gradientUnits="userSpaceOnUse" gradientTransform="translate(46.8712 11.4112) rotate(59.931) scale(20.2993)">
<stop offset="0.339" stop-color="#3DCBFF"/>
<stop offset="1" stop-color="#14B1FF"/>
</radialGradient>
<radialGradient id="paint1_radial_935_543" cx="0" cy="0" r="1" gradientUnits="userSpaceOnUse" gradientTransform="translate(8.68831 19.0955) rotate(47.573) scale(24.5978)">
<stop stop-color="#008CE2"/>
<stop offset="1" stop-color="#0068C6"/>
</radialGradient>
<radialGradient id="paint2_radial_935_543" cx="0" cy="0" r="1" gradientUnits="userSpaceOnUse" gradientTransform="translate(80.1861 18.4079) rotate(78.837) scale(22.0047)">
<stop stop-color="#0078D4"/>
<stop offset="1" stop-color="#004695"/>
</radialGradient>
<radialGradient id="paint3_radial_935_543" cx="0" cy="0" r="1" gradientUnits="userSpaceOnUse" gradientTransform="translate(68.2319 55.3909) rotate(78.837) scale(35.2793)">
<stop stop-color="#0078D4"/>
<stop offset="1" stop-color="#004695"/>
</radialGradient>
<radialGradient id="paint4_radial_935_543" cx="0" cy="0" r="1" gradientUnits="userSpaceOnUse" gradientTransform="translate(11.7873 44.1597) rotate(61.056) scale(52.3887 37.7093)">
<stop stop-color="#008CE2"/>
<stop offset="1" stop-color="#0068C6"/>
</radialGradient>
<radialGradient id="paint5_radial_935_543" cx="0" cy="0" r="1" gradientUnits="userSpaceOnUse" gradientTransform="translate(45.6664 57.5486) rotate(62.478) scale(30.4759 28.8021)">
<stop offset="0.339" stop-color="#3DCBFF"/>
<stop offset="1" stop-color="#14B1FF"/>
</radialGradient>
</defs>
</svg>
