<svg width="100" height="96" viewBox="0 0 100 96" fill="none" xmlns="http://www.w3.org/2000/svg">
<path d="M8.92857 45.2383C6.56057 45.2383 4.28955 46.179 2.61512 47.8534C0.940686 49.5278 0 51.7988 0 54.1669V57.143C0 57.143 0 78.5716 30.9524 78.5716C61.9048 78.5716 61.9048 57.143 61.9048 57.143V54.1669C61.9048 51.7988 60.9641 49.5278 59.2896 47.8534C57.6152 46.179 55.3442 45.2383 52.9762 45.2383H8.92857Z" fill="url(#paint0_linear_935_436)"/>
<path d="M8.92857 45.2383C6.56057 45.2383 4.28955 46.179 2.61512 47.8534C0.940686 49.5278 0 51.7988 0 54.1669V57.143C0 57.143 0 78.5716 30.9524 78.5716C61.9048 78.5716 61.9048 57.143 61.9048 57.143V54.1669C61.9048 51.7988 60.9641 49.5278 59.2896 47.8534C57.6152 46.179 55.3442 45.2383 52.9762 45.2383H8.92857Z" fill="url(#paint1_linear_935_436)"/>
<path d="M8.92857 45.2383C6.56057 45.2383 4.28955 46.179 2.61512 47.8534C0.940686 49.5278 0 51.7988 0 54.1669V57.143C0 57.143 0 78.5716 30.9524 78.5716C61.9048 78.5716 61.9048 57.143 61.9048 57.143V54.1669C61.9048 51.7988 60.9641 49.5278 59.2896 47.8534C57.6152 46.179 55.3442 45.2383 52.9762 45.2383H8.92857Z" fill="url(#paint2_radial_935_436)" fill-opacity="0.5"/>
<path d="M73.8095 38.0954C77.5983 38.0954 81.232 36.5903 83.911 33.9112C86.5901 31.2321 88.0952 27.5984 88.0952 23.8096C88.0952 20.0208 86.5901 16.3872 83.911 13.7081C81.232 11.029 77.5983 9.52393 73.8095 9.52393C70.0207 9.52393 66.3871 11.029 63.708 13.7081C61.0289 16.3872 59.5238 20.0208 59.5238 23.8096C59.5238 27.5984 61.0289 31.2321 63.708 33.9112C66.3871 36.5903 70.0207 38.0954 73.8095 38.0954Z" fill="url(#paint3_linear_935_436)"/>
<path d="M30.9524 38.0952C36.0041 38.0952 40.849 36.0884 44.4211 32.5163C47.9932 28.9442 50 24.0994 50 19.0476C50 13.9959 47.9932 9.15104 44.4211 5.57892C40.849 2.0068 36.0041 0 30.9524 0C25.9006 0 21.0558 2.0068 17.4837 5.57892C13.9116 9.15104 11.9048 13.9959 11.9048 19.0476C11.9048 24.0994 13.9116 28.9442 17.4837 32.5163C21.0558 36.0884 25.9006 38.0952 30.9524 38.0952Z" fill="url(#paint4_linear_935_436)"/>
<path d="M100 69.0474C100 54.5807 88.2738 42.8569 73.8095 42.8569C59.3476 42.8569 47.6214 54.5807 47.6214 69.0474C47.6214 73.4855 48.7309 77.7665 50.8095 81.576L47.7095 92.3284C47.5966 92.7193 47.5905 93.1333 47.6919 93.5274C47.7933 93.9214 47.9985 94.2811 48.2861 94.5689C48.5737 94.8568 48.9332 95.0623 49.3271 95.164C49.7211 95.2657 50.1351 95.26 50.5262 95.1474L61.2857 92.0522C65.1272 94.1466 69.4341 95.2405 73.8095 95.2331C88.2738 95.2331 100 83.5069 100 69.0427" fill="url(#paint5_linear_935_436)"/>
<path d="M64.2857 61.9048H83.3333C83.9648 61.9048 84.5704 62.1556 85.0169 62.6021C85.4634 63.0487 85.7143 63.6543 85.7143 64.2857C85.7143 64.9172 85.4634 65.5228 85.0169 65.9693C84.5704 66.4158 83.9648 66.6667 83.3333 66.6667H64.2857C63.6542 66.6667 63.0486 66.4158 62.6021 65.9693C62.1556 65.5228 61.9048 64.9172 61.9048 64.2857C61.9048 63.6543 62.1556 63.0487 62.6021 62.6021C63.0486 62.1556 63.6542 61.9048 64.2857 61.9048ZM61.9048 73.8095C61.9048 73.1781 62.1556 72.5725 62.6021 72.126C63.0486 71.6794 63.6542 71.4286 64.2857 71.4286H76.1905C76.8219 71.4286 77.4275 71.6794 77.8741 72.126C78.3206 72.5725 78.5714 73.1781 78.5714 73.8095C78.5714 74.441 78.3206 75.0466 77.8741 75.4931C77.4275 75.9397 76.8219 76.1905 76.1905 76.1905H64.2857C63.6542 76.1905 63.0486 75.9397 62.6021 75.4931C62.1556 75.0466 61.9048 74.441 61.9048 73.8095Z" fill="url(#paint6_linear_935_436)"/>
<defs>
<linearGradient id="paint0_linear_935_436" x1="14.7214" y1="49.6692" x2="26.1571" y2="83.5788" gradientUnits="userSpaceOnUse">
<stop offset="0.125" stop-color="#BD96FF"/>
<stop offset="1" stop-color="#9C6CFE"/>
</linearGradient>
<linearGradient id="paint1_linear_935_436" x1="30.9524" y1="41.2692" x2="47.019" y2="97.024" gradientUnits="userSpaceOnUse">
<stop stop-color="#885EDB" stop-opacity="0"/>
<stop offset="1" stop-color="#E362F8"/>
</linearGradient>
<radialGradient id="paint2_radial_935_436" cx="0" cy="0" r="1" gradientUnits="userSpaceOnUse" gradientTransform="translate(61.9048 69.0478) rotate(66.5014) scale(29.8569 31.0417)">
<stop stop-color="#30116E"/>
<stop offset="0.268" stop-color="#30116E" stop-opacity="0.812"/>
<stop offset="1" stop-color="#30116E" stop-opacity="0"/>
</radialGradient>
<linearGradient id="paint3_linear_935_436" x1="66.319" y1="13.3215" x2="80.8786" y2="36.5715" gradientUnits="userSpaceOnUse">
<stop offset="0.125" stop-color="#9C6CFE"/>
<stop offset="1" stop-color="#7A41DC"/>
</linearGradient>
<linearGradient id="paint4_linear_935_436" x1="20.9643" y1="5.06429" x2="40.3786" y2="36.0643" gradientUnits="userSpaceOnUse">
<stop offset="0.125" stop-color="#BD96FF"/>
<stop offset="1" stop-color="#9C6CFE"/>
</linearGradient>
<linearGradient id="paint5_linear_935_436" x1="49.4904" y1="52.6784" x2="95.219" y2="130.643" gradientUnits="userSpaceOnUse">
<stop stop-color="#0FAFFF"/>
<stop offset="1" stop-color="#CC23D1"/>
</linearGradient>
<linearGradient id="paint6_linear_935_436" x1="63.9881" y1="62.1548" x2="65.4333" y2="77.7" gradientUnits="userSpaceOnUse">
<stop stop-color="#FDFDFD"/>
<stop offset="1" stop-color="#CCEAFF"/>
</linearGradient>
</defs>
</svg>
