<svg width="100" height="114" viewBox="0 0 100 114" fill="none" xmlns="http://www.w3.org/2000/svg">
<path d="M9.99951 6.70703C7.34747 6.70703 4.80406 7.76055 2.92879 9.63582C1.05352 11.5111 0 14.0545 0 16.7065V96.7026C0 99.3546 1.05352 101.898 2.92879 103.773C4.80406 105.649 7.34747 106.702 9.99951 106.702H47.131L79.9961 76.1903V16.7065C79.9961 14.0545 78.9426 11.5111 77.0673 9.63582C75.192 7.76055 72.6486 6.70703 69.9966 6.70703H9.99951Z" fill="url(#paint0_linear_935_483)"/>
<path d="M13.3327 43.372C13.3327 42.488 13.6838 41.6402 14.3089 41.0151C14.934 40.39 15.7818 40.0388 16.6658 40.0388H63.3302C64.2142 40.0388 65.062 40.39 65.6871 41.0151C66.3122 41.6402 66.6634 42.488 66.6634 43.372C66.6634 44.256 66.3122 45.1038 65.6871 45.7289C65.062 46.354 64.2142 46.7052 63.3302 46.7052H16.6658C15.7818 46.7052 14.934 46.354 14.3089 45.7289C13.6838 45.1038 13.3327 44.256 13.3327 43.372Z" fill="url(#paint1_linear_935_483)" fill-opacity="0.9"/>
<path d="M13.3327 83.37C13.3327 82.486 13.6838 81.6382 14.3089 81.0131C14.934 80.388 15.7818 80.0369 16.6658 80.0369H63.3302C64.2142 80.0369 65.062 80.388 65.6871 81.0131C66.3122 81.6382 66.6634 82.486 66.6634 83.37C66.6634 84.254 66.3122 85.1019 65.6871 85.7269C65.062 86.352 64.2142 86.7032 63.3302 86.7032H16.6658C15.7818 86.7032 14.934 86.352 14.3089 85.7269C13.6838 85.1019 13.3327 84.254 13.3327 83.37Z" fill="url(#paint2_linear_935_483)" fill-opacity="0.9"/>
<path d="M16.6658 60.0378C15.7818 60.0378 14.934 60.389 14.3089 61.0141C13.6838 61.6392 13.3327 62.487 13.3327 63.371C13.3327 64.255 13.6838 65.1028 14.3089 65.7279C14.934 66.353 15.7818 66.7042 16.6658 66.7042H36.6649C37.5489 66.7042 38.3967 66.353 39.0218 65.7279C39.6469 65.1028 39.998 64.255 39.998 63.371C39.998 62.487 39.6469 61.6392 39.0218 61.0141C38.3967 60.389 37.5489 60.0378 36.6649 60.0378H16.6658Z" fill="url(#paint3_linear_935_483)" fill-opacity="0.9"/>
<path d="M9.99951 6.66626C7.34747 6.66626 4.80406 7.71978 2.92879 9.59505C1.05352 11.4703 0 14.0137 0 16.6658V96.6618C0 99.3139 1.05352 101.857 2.92879 103.733C4.80406 105.608 7.34747 106.661 9.99951 106.661H47.131L79.9961 76.1495V16.6658C79.9961 14.0137 78.9426 11.4703 77.0673 9.59505C75.192 7.71978 72.6486 6.66626 69.9966 6.66626H9.99951Z" fill="url(#paint4_radial_935_483)" fill-opacity="0.5"/>
<path d="M9.99951 6.66626C7.34747 6.66626 4.80406 7.71978 2.92879 9.59505C1.05352 11.4703 0 14.0137 0 16.6658V96.6618C0 99.3139 1.05352 101.857 2.92879 103.733C4.80406 105.608 7.34747 106.661 9.99951 106.661H47.131L79.9961 76.1495V16.6658C79.9961 14.0137 78.9426 11.4703 77.0673 9.59505C75.192 7.71978 72.6486 6.66626 69.9966 6.66626H9.99951Z" fill="url(#paint5_radial_935_483)" fill-opacity="0.4"/>
<path d="M19.999 9.99951C19.999 12.6515 21.0525 15.195 22.9278 17.0702C24.8031 18.9455 27.3465 19.999 29.9985 19.999H49.9976C52.6496 19.999 55.193 18.9455 57.0683 17.0702C58.9435 15.195 59.9971 12.6515 59.9971 9.99951C59.9971 7.34747 58.9435 4.80406 57.0683 2.92879C55.193 1.05352 52.6496 3.95184e-08 49.9976 0H29.9985C27.3465 0 24.8031 1.05352 22.9278 2.92879C21.0525 4.80406 19.999 7.34747 19.999 9.99951Z" fill="url(#paint6_linear_935_483)"/>
<path d="M69.0099 66.6633H86.609V84.3025L64.1368 106.808C62.2605 108.684 59.9105 110.015 57.3371 110.661L47.3643 113.161C46.3711 113.408 45.331 113.393 44.3451 113.119C43.3592 112.845 42.461 112.32 41.7377 111.596C41.0144 110.872 40.4907 109.973 40.2174 108.987C39.9441 108.001 39.9305 106.961 40.178 105.968L42.6778 95.9819C43.3205 93.4069 44.6499 91.0545 46.5243 89.1756L69.0099 66.6633Z" fill="url(#paint7_linear_935_483)"/>
<path d="M63.2302 107.615C61.5217 109.058 59.506 110.091 57.3371 110.635L47.3643 113.135C46.3711 113.381 45.331 113.367 44.3451 113.092C43.3592 112.818 42.461 112.294 41.7377 111.57C41.0144 110.846 40.4907 109.947 40.2174 108.961C39.9441 107.975 39.9305 106.935 40.178 105.942L42.6712 95.9555C43.2045 93.8356 44.1978 91.8691 45.5777 90.1958C46.5851 94.4651 48.7757 98.3639 51.898 101.445C55.0203 104.526 58.9479 106.664 63.2302 107.615Z" fill="url(#paint8_linear_935_483)"/>
<path d="M70.2632 65.4633L78.7294 56.9838C79.8868 55.8269 81.2606 54.9093 82.7726 54.2833C84.2845 53.6574 85.905 53.3354 87.5414 53.3357C89.1778 53.336 90.7981 53.6586 92.3098 54.2851C93.8215 54.9116 95.195 55.8298 96.3519 56.9871C97.5088 58.1444 98.4264 59.5183 99.0523 61.0302C99.6783 62.5422 100 64.1626 100 65.799C99.9997 67.4354 99.677 69.0557 99.0505 70.5674C98.424 72.0792 97.5059 73.4527 96.3486 74.6096L88.5223 82.4425L70.2632 65.4633Z" fill="url(#paint9_linear_935_483)"/>
<path d="M93.3421 77.6429C89.0186 76.6862 85.0565 74.5189 81.9189 71.3943C78.7813 68.2696 76.5976 64.3166 75.623 59.9971L68.9633 66.6634C69.9379 70.9829 72.1216 74.9359 75.2592 78.0606C78.3969 81.1852 82.3589 83.3525 86.6824 84.3092L93.3421 77.6429Z" fill="url(#paint10_linear_935_483)"/>
<defs>
<linearGradient id="paint0_linear_935_483" x1="1.78805e-07" y1="16.7065" x2="79.9961" y2="106.702" gradientUnits="userSpaceOnUse">
<stop stop-color="#36DFF1"/>
<stop offset="1" stop-color="#0094F0"/>
</linearGradient>
<linearGradient id="paint1_linear_935_483" x1="46.6644" y1="86.7032" x2="13.3327" y2="40.0388" gradientUnits="userSpaceOnUse">
<stop stop-color="#9DEAFF"/>
<stop offset="1" stop-color="white"/>
</linearGradient>
<linearGradient id="paint2_linear_935_483" x1="46.6644" y1="86.7032" x2="13.3327" y2="40.0388" gradientUnits="userSpaceOnUse">
<stop stop-color="#9DEAFF"/>
<stop offset="1" stop-color="white"/>
</linearGradient>
<linearGradient id="paint3_linear_935_483" x1="46.6644" y1="86.7032" x2="13.3327" y2="40.0388" gradientUnits="userSpaceOnUse">
<stop stop-color="#9DEAFF"/>
<stop offset="1" stop-color="white"/>
</linearGradient>
<radialGradient id="paint4_radial_935_483" cx="0" cy="0" r="1" gradientUnits="userSpaceOnUse" gradientTransform="translate(36.6649 3.33309) scale(36.6649 32.5779)">
<stop stop-color="#0A1852"/>
<stop offset="1" stop-color="#0A1852" stop-opacity="0"/>
</radialGradient>
<radialGradient id="paint5_radial_935_483" cx="0" cy="0" r="1" gradientUnits="userSpaceOnUse" gradientTransform="translate(67.5037 78.8876) rotate(133.958) scale(54.0214 20.1786)">
<stop stop-color="#0A1852"/>
<stop offset="1" stop-color="#0A1852" stop-opacity="0"/>
</radialGradient>
<linearGradient id="paint6_linear_935_483" x1="39.998" y1="19.999" x2="39.998" y2="0" gradientUnits="userSpaceOnUse">
<stop stop-color="#FAB500"/>
<stop offset="1" stop-color="#FFE06B"/>
</linearGradient>
<linearGradient id="paint7_linear_935_483" x1="52.364" y1="78.1161" x2="75.2362" y2="100.988" gradientUnits="userSpaceOnUse">
<stop stop-color="#FFA43D"/>
<stop offset="1" stop-color="#FB5937"/>
</linearGradient>
<linearGradient id="paint8_linear_935_483" x1="36.6715" y1="96.6355" x2="53.3373" y2="113.281" gradientUnits="userSpaceOnUse">
<stop offset="0.255" stop-color="#FFD394"/>
<stop offset="1" stop-color="#FF921F"/>
</linearGradient>
<linearGradient id="paint9_linear_935_483" x1="93.7754" y1="59.3903" x2="83.0292" y2="69.7031" gradientUnits="userSpaceOnUse">
<stop stop-color="#F97DBD"/>
<stop offset="1" stop-color="#DD3CE2"/>
</linearGradient>
<linearGradient id="paint10_linear_935_483" x1="81.5693" y1="76.6363" x2="64.3635" y2="69.09" gradientUnits="userSpaceOnUse">
<stop stop-color="#FF921F"/>
<stop offset="1" stop-color="#FFE994"/>
</linearGradient>
</defs>
</svg>
