<svg version="1.1" id="Layer_1" xmlns="http://www.w3.org/2000/svg" xmlns:xlink="http://www.w3.org/1999/xlink" x="0px" y="0px"
	 width="100%" viewBox="0 0 500 500" enable-background="new 0 0 500 500" xml:space="preserve">
<path fill="#000000" opacity="1.000000" stroke="none" 
	d="
M328.000000,501.000000 
	C220.000031,501.000000 112.500031,500.979065 5.000180,501.095398 
	C1.576347,501.099091 0.903033,500.423889 0.905298,497.000031 
	C1.013776,333.000122 1.013757,169.000153 0.905338,5.000258 
	C0.903075,1.576984 1.575758,0.903020 4.999865,0.905285 
	C168.999756,1.013775 332.999725,1.013760 496.999634,0.905354 
	C500.422638,0.903091 501.096985,1.575408 501.094727,4.999745 
	C500.986206,168.999634 500.986237,332.999603 501.094604,496.999512 
	C501.096893,500.422272 500.426086,501.105530 497.000183,501.097168 
	C440.833710,500.960236 384.666809,501.000000 328.000000,501.000000 
z"/>
<path fill="#5C18E8" opacity="1.000000" stroke="none" 
	d="
M217.786346,124.780746 
	C218.009399,125.005020 218.486649,125.103630 218.719818,125.174408 
	C219.146149,125.343521 219.339325,125.441849 219.747955,125.783684 
	C219.963425,126.027191 220.002060,126.003258 219.985519,126.019905 
	C221.139984,127.487030 222.791946,128.089432 224.752563,128.811310 
	C225.010788,129.019760 225.455811,129.089050 225.676575,129.133453 
	C226.203232,129.292145 226.475357,129.460831 226.896484,129.841522 
	C227.523056,130.336166 227.966904,130.673233 228.672211,131.112823 
	C230.297577,132.285675 231.567047,133.533157 233.707397,133.830612 
	C233.962021,134.036438 234.001266,134.001831 233.983994,134.022308 
	C234.550659,134.573608 235.134140,135.104996 236.092987,135.525421 
	C236.388626,135.511978 236.387802,135.599075 236.422668,135.625183 
	C237.646591,143.740509 236.749634,151.875305 236.967285,159.986374 
	C237.105225,165.127579 236.770340,170.288712 237.069168,175.415939 
	C237.273193,178.916611 235.856934,181.102646 233.018097,182.664825 
	C216.058533,191.997528 199.533630,202.093521 182.553543,211.397186 
	C179.663773,212.980545 175.164825,213.472763 175.004120,218.744812 
	C174.927643,233.287552 175.128342,247.390640 174.796677,261.942047 
	C169.759705,265.478699 162.604492,261.936401 162.070419,256.076721 
	C161.833069,253.472549 162.089111,250.842361 161.846344,247.817719 
	C161.310379,245.594955 161.598434,243.747528 161.513641,241.548401 
	C161.480698,240.237381 162.016754,239.344543 161.662659,238.055328 
	C161.490448,236.833527 161.521439,235.936401 161.536057,234.704956 
	C161.928879,233.275543 162.101639,232.173248 161.603577,230.695892 
	C161.512695,229.591904 161.515976,228.840118 161.558472,227.681213 
	C161.659454,227.002518 161.731842,226.730972 161.873978,226.033234 
	C162.062149,202.243256 162.006210,178.879425 161.932434,155.059570 
	C161.808182,154.310791 161.723404,154.018036 161.421082,153.323151 
	C157.188004,152.056488 155.195099,156.289169 151.358185,156.856049 
	C150.844818,157.264374 150.658173,157.514801 150.306915,158.205444 
	C149.803162,184.874756 150.094910,211.104996 149.993988,237.334488 
	C149.981216,240.654480 150.067627,243.975342 149.842743,247.758347 
	C147.866974,251.077011 145.470688,249.985687 143.216492,248.923096 
	C140.944016,247.851883 139.085617,246.182648 137.314117,243.779358 
	C136.465897,241.424133 136.610275,239.420212 136.609177,237.437469 
	C136.594284,210.575394 136.597046,183.713318 136.602509,156.851242 
	C136.603180,153.529907 136.376343,150.142517 139.522354,147.322327 
	C140.060898,146.857468 140.277481,146.684570 140.787537,146.236359 
	C143.582932,144.582687 146.654327,144.245102 148.824966,141.572632 
	C149.222244,141.132401 149.393112,140.967117 149.858246,140.602737 
	C150.366440,140.305817 150.580399,140.207977 151.126434,139.998322 
	C159.394791,136.432083 167.138351,132.630951 174.305237,127.092285 
	C174.960098,126.597534 175.394775,126.437508 176.210495,126.375412 
	C176.780441,126.459267 177.001144,126.528893 177.513550,126.776077 
	C177.975693,127.097176 178.146164,127.240730 178.546265,127.617935 
	C179.587296,128.835754 180.558411,129.569580 182.148224,129.869751 
	C182.652817,129.978119 182.853912,130.026001 183.350800,130.167511 
	C184.030869,130.414734 184.408218,130.583694 185.060272,130.901535 
	C185.526718,131.133148 185.711533,131.231415 186.162231,131.502197 
	C186.591919,131.810944 186.755737,131.947144 187.146179,132.313354 
	C187.513596,132.708801 187.654373,132.874237 188.000000,133.294876 
	C189.301208,135.134369 191.004074,135.602615 193.064331,136.115112 
	C193.594833,136.316605 193.799088,136.416489 194.272614,136.723083 
	C195.395126,137.977188 196.388275,138.788696 198.133682,138.917389 
	C198.662109,139.007080 198.870941,139.050125 199.383011,139.186295 
	C200.069077,139.437943 200.441162,139.618317 201.057617,139.979614 
	C201.639832,140.355057 201.950653,140.594467 202.459259,141.042358 
	C202.968292,141.468430 203.274292,141.691666 203.850861,142.030334 
	C204.639664,142.442261 205.107590,142.803329 205.714661,143.472412 
	C206.558014,144.620270 207.548691,144.841568 208.870422,145.091721 
	C209.377075,145.240845 209.574722,145.316803 210.044891,145.553940 
	C210.968674,146.234055 211.616898,146.757477 212.662292,147.260284 
	C213.127991,147.523331 213.309723,147.640213 213.749451,147.957123 
	C217.250336,150.776840 220.163803,149.261002 223.236526,147.160538 
	C223.737274,146.056808 223.890396,145.213287 223.555664,144.040726 
	C223.342514,143.565979 223.242142,143.383804 222.960495,142.948318 
	C221.427338,140.851669 219.379272,140.260193 217.014374,139.506790 
	C216.501801,139.196503 216.307556,139.045441 215.853546,138.620087 
	C208.236801,133.182800 200.141220,129.271927 192.371826,124.817924 
	C188.617172,122.665489 185.037735,120.248985 181.288773,118.098236 
	C178.087936,116.261932 175.128357,116.191040 171.884201,118.024170 
	C161.893539,123.669495 152.058395,129.582428 142.074387,135.239456 
	C138.747726,137.124390 135.455246,139.093903 132.052750,140.817444 
	C128.652237,142.539978 127.289459,144.987091 127.301292,148.768829 
	C127.388863,176.751465 127.270462,204.734528 127.394478,232.717316 
	C127.401802,234.370743 127.793350,236.052429 126.547455,237.904770 
	C121.929558,239.858917 118.807961,236.500351 114.804428,235.156433 
	C114.232422,234.284485 114.086624,233.703384 114.036438,232.627808 
	C113.980675,201.156693 114.019691,170.151062 113.994919,138.667755 
	C113.985573,137.871811 113.979973,137.553604 114.044495,136.763153 
	C114.114601,136.290924 114.575844,136.151871 114.810104,136.095825 
	C131.114304,127.103256 146.727325,117.363091 162.999802,108.780327 
	C164.598114,107.937325 165.831757,106.487106 167.772720,105.453949 
	C168.069260,105.246353 168.546829,105.108490 168.790680,105.060478 
	C171.793686,103.809456 173.852646,100.908470 177.716858,101.770050 
	C178.052765,101.969429 177.998047,101.995033 178.013062,101.968811 
	C179.194153,103.362175 180.862885,103.942787 182.743362,104.806610 
	C183.006821,105.003517 182.998993,105.001320 182.997437,104.997757 
	C184.837173,106.785469 187.202332,107.631622 189.771698,108.805855 
	C190.043350,109.012215 190.501526,109.097427 190.723541,109.168152 
	C191.141754,109.337776 191.337952,109.436668 191.765076,109.770691 
	C191.995987,110.005814 192.458038,110.111374 192.690491,110.157448 
	C193.127579,110.314728 193.332230,110.425941 193.795914,110.771584 
	C194.505997,111.350464 194.957047,111.694916 195.678192,112.132385 
	C196.150665,112.333565 196.353058,112.441727 196.821808,112.767914 
	C197.088181,112.985924 197.525024,113.098328 197.740860,113.163780 
	C198.150162,113.334557 198.343613,113.439873 198.775787,113.773621 
	C199.014496,114.002045 198.997726,114.002556 198.998260,113.994247 
	C199.669495,114.790871 200.583603,115.223495 201.748535,115.824509 
	C201.982712,116.018394 202.000000,116.000000 201.991364,116.009499 
	C202.926468,117.033043 204.135361,117.468544 205.752533,117.794540 
	C206.030365,117.969635 205.999390,117.998581 206.013824,117.981888 
	C206.672913,118.811539 207.606033,119.220306 208.788025,119.805511 
	C209.032959,119.987930 209.491028,120.106804 209.718948,120.170395 
	C210.146317,120.337189 210.345779,120.440392 210.788330,120.776810 
	C211.031403,121.010025 211.462479,121.075386 211.678329,121.105881 
	C212.194778,121.282982 212.471130,121.466164 212.924179,121.833221 
	C213.125137,121.980522 213.505005,122.108719 213.701462,122.148521 
	C214.210083,122.300560 214.488480,122.468712 214.931396,122.836792 
	C215.576416,123.334000 216.023102,123.687180 216.732269,124.159668 
	C217.184265,124.371475 217.373779,124.463974 217.786346,124.780746 
z"/>
<path fill="#5D18E8" opacity="1.000000" stroke="none" 
	d="
M301.883789,280.829163 
	C302.071991,280.985992 302.522278,281.070099 302.742706,281.132202 
	C306.119263,281.276794 307.974487,278.930756 310.114227,277.233246 
	C320.190186,269.239716 330.710022,261.814636 340.753632,253.225235 
	C340.987091,252.968353 341.003601,252.998947 340.987183,252.993408 
	C349.224854,247.338287 357.618378,241.866058 364.740570,234.218124 
	C364.973511,233.955536 365.002289,233.997543 364.981201,233.983582 
	C370.084106,231.589615 374.633179,228.393555 378.633606,224.402298 
	C380.506897,222.533295 382.370880,220.608154 385.706573,220.771484 
	C387.944550,223.184875 387.979767,225.872437 387.981293,228.535751 
	C388.005768,270.839233 388.009369,313.142731 387.979492,355.446228 
	C387.975372,361.295471 387.242493,361.943787 381.258118,361.985077 
	C379.429810,361.997681 377.592316,362.112823 375.339355,361.541016 
	C373.028076,359.005707 373.627167,356.238464 373.619354,353.636993 
	C373.516052,319.375183 373.715576,285.112976 373.449280,250.442902 
	C372.680725,247.886276 371.647064,247.534958 369.808807,249.098450 
	C362.261597,255.517563 354.037994,261.085999 346.273712,267.783997 
	C346.046509,268.045776 346.000000,268.000000 346.022491,268.024109 
	C344.437317,269.112793 342.645538,269.937592 341.260925,271.811829 
	C341.053314,272.060760 341.002167,271.999268 341.032684,272.025391 
	C338.023193,273.981812 334.684021,275.507751 332.213867,278.746277 
	C332.027130,279.031891 332.000000,279.000000 332.015839,279.013672 
	C329.267303,280.534027 326.547791,282.102356 324.230042,284.785187 
	C323.921387,285.357147 323.747162,285.619415 323.262085,285.925476 
	C321.452209,286.816437 319.969055,287.747162 318.684814,289.465576 
	C318.235718,290.101990 317.908508,290.387604 317.266144,290.816895 
	C317.017975,291.035400 317.000000,291.000000 317.014893,291.013123 
	C313.359192,292.662354 310.513916,295.481750 307.418274,297.907166 
	C304.618774,300.100525 302.399292,300.318207 299.644287,297.737244 
	C296.283966,294.589203 292.275909,292.207977 288.284668,289.236267 
	C288.016327,288.984314 288.000000,289.000000 288.007751,288.991760 
	C279.470520,281.701080 270.370667,275.117004 261.655548,268.047607 
	C258.339081,265.357391 256.177948,254.079834 258.442261,250.600677 
	C259.609467,248.807281 261.087982,249.465912 262.304352,250.319946 
	C264.327179,251.740219 266.084564,253.537186 268.717102,254.768219 
	C269.053040,254.963882 269.001862,254.998962 269.013641,254.970261 
	C269.206787,255.215027 269.420654,255.460098 269.857422,255.830200 
	C270.047791,255.983612 269.998749,256.001007 270.007507,255.976501 
	C270.206238,256.214996 270.421295,256.455566 270.841309,256.836212 
	C271.021179,256.998657 270.997284,257.002319 271.000610,256.990601 
	C271.673645,257.802917 272.606049,258.223328 273.780273,258.830566 
	C274.483795,259.371674 274.952606,259.715118 275.689575,260.179321 
	C276.153625,260.383362 276.349457,260.466614 276.770691,260.775818 
	C276.996094,261.001770 277.000000,261.000000 276.998993,261.001709 
	C277.680328,262.043762 278.191833,263.250732 279.818237,263.801086 
	C280.080505,263.976074 280.495789,264.093811 280.707062,264.137848 
	C281.115936,264.295258 281.313507,264.408661 281.781616,264.730835 
	C282.052124,264.939636 281.998779,264.994812 282.026337,264.970093 
	C282.216492,265.237152 282.432678,265.481537 282.890686,265.837219 
	C283.369293,266.107422 283.606293,266.288635 283.892578,266.741150 
	C284.216644,267.187653 284.439178,267.431549 284.856140,267.829041 
	C285.049469,267.983704 284.995483,267.992584 285.011017,267.970032 
	C285.657776,268.799469 286.583282,269.216614 287.745850,269.823914 
	C287.979950,270.018463 288.000000,270.000000 287.992645,270.011383 
	C288.211914,270.237946 288.440369,270.451233 288.826172,270.837952 
	C288.981689,271.013336 289.446930,271.110870 289.681702,271.147827 
	C290.115356,271.297821 290.314270,271.410889 290.775269,271.745544 
	C291.037354,271.967133 291.002441,272.001221 291.017273,271.983124 
	C291.212708,272.229156 291.426392,272.463043 291.828308,272.847534 
	C292.257324,273.206665 292.531250,273.384857 292.889526,273.799683 
	C293.147095,274.192383 293.320312,274.348450 293.728119,274.763977 
	C293.962708,275.023376 294.001678,275.001648 293.987610,275.019226 
	C294.690552,275.792664 295.603821,276.232025 296.777344,276.824951 
	C297.360474,277.072388 297.630951,277.246307 297.911804,277.772583 
	C298.228638,278.221008 298.453705,278.441895 298.839478,278.836548 
	C299.165070,279.049286 299.326691,279.091583 299.726990,279.210144 
	C300.160583,279.375793 300.355469,279.465210 300.780762,279.779053 
	C301.011200,280.003448 300.997559,280.002441 300.996002,279.995697 
	C301.208466,280.236908 301.442169,280.464691 301.883789,280.829163 
z"/>
<path fill="#5B1AE2" opacity="1.000000" stroke="none" 
	d="
M292.906982,246.834991 
	C293.397736,247.069382 293.641174,247.241196 293.916138,247.706482 
	C294.218323,248.185883 294.449768,248.438278 294.910095,248.822083 
	C295.120178,248.970551 295.525330,249.056473 295.726440,249.105804 
	C296.122101,249.277771 296.316681,249.400391 296.784546,249.733597 
	C297.057831,249.944168 297.005554,250.002151 297.028015,249.971558 
	C297.213837,250.220749 297.419281,250.465195 297.861877,250.814804 
	C298.056915,250.955307 297.998199,250.994202 298.017273,250.964569 
	C298.407166,251.441986 298.988190,251.506424 299.766083,251.812256 
	C299.998627,251.978531 300.032562,251.976456 300.044800,251.988251 
	C300.206146,252.171310 300.355194,252.342575 300.766479,252.731171 
	C301.293884,253.149734 301.559082,253.350967 301.846741,253.806671 
	C302.025665,254.292908 302.182098,254.524658 302.247559,255.165298 
	C301.822784,258.963257 302.098145,262.362640 301.980957,265.754639 
	C301.926636,267.327209 302.330170,269.045044 300.428497,270.379364 
	C297.739532,270.364868 296.626953,268.123199 294.290100,267.242432 
	C293.948578,267.050201 294.004791,267.007782 293.980591,267.034424 
	C293.471161,266.432648 292.875275,265.930481 291.909424,265.574432 
	C291.620422,265.628052 291.487030,265.520752 291.425842,265.460876 
	C288.972534,261.634979 284.871765,260.003693 281.215942,257.268158 
	C280.953217,257.048004 281.000000,257.001221 280.976013,257.023010 
	C277.527283,252.923065 272.854401,250.407364 268.265839,247.225647 
	C267.976135,247.040939 267.994385,247.002274 267.977966,247.016327 
	C265.777008,244.758224 263.189240,243.019608 260.248199,241.191162 
	C259.640747,240.947556 259.370667,240.787720 259.090576,240.276398 
	C258.675873,239.694031 258.362640,239.316635 257.995056,239.001709 
	C256.205597,237.468674 254.380234,234.565247 252.074326,235.738785 
	C249.599747,236.998184 251.439789,240.116074 251.487961,242.842773 
	C251.478210,266.168579 251.487350,289.080841 251.484589,312.475525 
	C251.479843,328.179871 251.492508,343.401794 251.450317,359.106750 
	C250.728012,361.417236 249.272568,362.015289 247.472015,361.955811 
	C244.009750,361.841492 240.517624,362.442047 236.724213,361.219849 
	C234.877991,358.592010 236.219803,356.176819 236.214691,353.834869 
	C236.112381,306.914520 236.138184,259.993896 236.119125,213.073349 
	C236.118347,211.134872 236.398529,209.199799 235.107269,207.366302 
	C234.159409,206.020416 235.383453,204.658356 236.416397,204.052521 
	C237.192520,203.597290 238.372986,203.987854 239.344009,204.925293 
	C248.027145,213.308121 258.005768,220.021759 267.822571,226.960938 
	C271.563049,229.604980 274.841492,232.902664 278.643188,236.051758 
	C279.147522,236.313797 279.339142,236.426529 279.791687,236.746857 
	C280.052673,236.954468 280.004944,237.002731 280.022888,236.974472 
	C280.210266,237.228455 280.425476,237.469849 280.862305,237.839188 
	C281.499756,238.350494 281.961334,238.693024 282.692749,239.140854 
	C283.157440,239.346130 283.352386,239.446136 283.776184,239.781952 
	C284.340454,240.071426 284.607697,240.235855 284.900879,240.732269 
	C285.218658,241.200989 285.451202,241.439957 285.884155,241.830963 
	C286.076874,241.990448 286.501801,242.095612 286.713501,242.151154 
	C287.122101,242.312943 287.319000,242.419205 287.776154,242.737335 
	C288.036438,242.949173 288.000763,242.995773 288.023315,242.977432 
	C288.218536,243.240646 288.437103,243.480377 288.887299,243.837250 
	C289.830811,244.653442 290.588593,245.310654 291.628601,246.078888 
	C292.213776,246.301529 292.483643,246.466980 292.906982,246.834991 
z"/>
<path fill="#5C1AE5" opacity="1.000000" stroke="none" 
	d="
M359.729309,266.127777 
	C360.425323,265.310974 360.926300,264.764801 361.675720,264.090668 
	C366.743073,263.210297 366.955627,263.305298 366.972229,268.369263 
	C367.032593,286.840210 366.993835,305.311401 366.996155,323.782501 
	C366.997437,334.099701 367.016937,344.416931 366.988403,354.734039 
	C366.969452,361.578369 366.520081,362.036621 359.482697,361.965302 
	C357.223511,361.942413 354.764954,362.609772 352.514740,360.318726 
	C352.147217,359.211578 352.106750,358.479492 352.125458,357.384521 
	C352.931488,345.730774 352.367645,334.427216 352.496979,323.130188 
	C352.592194,314.812378 352.524536,306.492523 352.507355,298.173676 
	C352.504303,296.708252 352.907959,294.962555 351.423767,294.047485 
	C349.500000,292.861359 348.511292,294.879669 347.168213,295.666656 
	C344.423035,297.275208 342.405304,299.819916 339.373413,301.754333 
	C339.068756,302.061554 338.997131,302.016266 339.030945,302.044281 
	C338.163147,303.009918 336.631927,302.957458 335.644928,304.347412 
	C334.015808,306.011169 332.166718,306.834045 330.355377,308.269470 
	C326.434509,311.724548 322.367584,314.477386 318.661224,318.036560 
	C318.635284,318.367767 318.539459,318.522797 318.479065,318.591034 
	C317.412903,318.334290 317.003479,319.201233 316.217743,319.922485 
	C315.941681,320.481995 315.751770,320.716125 315.245483,320.927307 
	C314.303986,321.730225 313.236542,321.299408 312.431946,322.092468 
	C312.434326,322.437866 312.389465,322.523438 312.386688,322.571655 
	C311.446350,322.365601 311.011810,323.147797 310.196045,323.783875 
	C309.985046,323.988495 310.000000,324.000000 309.994019,323.992493 
	C309.450439,324.379242 310.209076,324.025208 309.613647,324.296204 
	C307.379089,325.313080 305.858185,328.710449 302.855286,327.034821 
	C300.197815,325.551910 302.486694,322.808014 302.029602,320.681946 
	C301.860870,319.897095 302.178497,318.990143 301.920563,318.236908 
	C300.035858,312.733521 303.627258,310.093292 307.683258,307.240784 
	C307.948730,306.945984 307.989410,306.975006 307.971436,306.965820 
	C308.217957,306.786743 308.455292,306.584991 308.837189,306.192017 
	C309.008881,306.032715 308.997711,305.999084 309.013489,306.007050 
	C310.229767,305.194885 311.623230,304.640503 312.780029,303.231873 
	C313.002838,303.010406 312.999725,302.998779 313.005768,303.000092 
	C313.234375,302.781982 313.454803,302.560394 313.820129,302.154175 
	C313.967163,301.971680 314.000000,301.998779 313.983948,301.983551 
	C314.229462,301.780884 314.467316,301.567108 314.827087,301.135986 
	C314.972687,300.944946 314.995758,301.001556 314.973541,300.980469 
	C315.778992,300.377625 316.816162,300.149811 317.754150,299.188477 
	C317.953064,298.958649 318.001129,298.996338 317.978882,298.974182 
	C322.006012,296.393951 326.065979,293.850342 329.772705,290.247864 
	C330.061401,289.663605 330.223816,289.390350 330.732910,289.098328 
	C331.993439,287.920654 333.463013,287.444580 334.781494,286.218933 
	C335.004669,285.994415 335.001221,286.001221 334.997681,286.002930 
	C336.393616,284.651245 338.347137,284.001770 339.774353,282.167664 
	C340.049072,281.582611 340.227234,281.321320 340.755463,281.067505 
	C343.365387,279.768463 345.286957,277.882355 347.771973,276.234314 
	C348.009430,276.000916 348.001221,276.001221 348.000946,276.005493 
	C348.228424,275.787262 348.453583,275.562225 348.830933,275.152832 
	C348.985626,274.970978 349.001465,275.000519 348.986237,274.993713 
	C349.221191,274.789520 349.454651,274.574036 349.829041,274.161530 
	C349.986755,273.982635 350.000000,274.000000 349.992371,273.991516 
	C351.243591,273.225128 352.623566,272.635712 353.756317,271.176086 
	C353.960510,270.933777 353.938995,270.968140 353.939636,270.945496 
	C356.153168,269.845306 358.290466,268.674225 359.729309,266.127777 
z"/>
<path fill="#5C18E8" opacity="1.000000" stroke="none" 
	d="
M230.105804,355.456909 
	C229.951843,356.095642 229.920319,356.270905 229.826065,356.705750 
	C229.110535,358.364807 230.000580,360.080170 228.433716,361.586029 
	C211.867645,362.395782 215.110931,362.716980 215.061478,349.667450 
	C214.904633,308.291260 215.003403,266.914124 215.003571,225.537369 
	C215.003586,224.374161 214.992355,223.210815 215.008255,222.047791 
	C215.093216,215.836639 215.444229,215.634796 221.591675,218.718658 
	C222.018982,218.951523 222.009277,218.985596 222.026154,218.980255 
	C222.223206,219.232574 222.430603,219.466064 222.846512,219.824310 
	C223.027802,219.973267 223.000000,220.000000 223.013519,219.986374 
	C223.217194,220.227051 223.429474,220.461334 223.841690,220.832840 
	C224.019547,220.990082 223.999237,221.000000 224.005402,220.990326 
	C224.679047,221.810791 225.616653,222.222900 226.813995,222.798798 
	C227.384720,223.082626 227.632812,223.280167 227.895676,223.789764 
	C228.228577,224.214203 228.456802,224.434631 228.836014,224.841583 
	C229.008926,225.005432 228.998215,225.002243 228.996979,224.996979 
	C229.402863,225.420547 229.474533,225.973770 229.647125,226.785309 
	C229.775223,227.503296 229.818909,227.956833 229.908081,228.749374 
	C230.042618,229.394989 230.131699,229.701599 230.148895,230.482071 
	C229.905884,271.666962 230.017059,312.378113 230.050690,353.567810 
	C230.129486,354.362091 230.178864,354.677795 230.105804,355.456909 
z"/>
<path fill="#A890D9" opacity="1.000000" stroke="none" 
	d="
M124.668373,289.347595 
	C125.676338,288.782654 126.472260,288.414307 127.604279,287.995209 
	C133.213150,283.742401 138.138779,286.754364 142.240128,290.658539 
	C145.330353,293.600159 141.844650,294.675812 140.275146,296.635132 
	C133.407608,302.447113 125.006157,305.226807 118.075691,310.429901 
	C116.904129,311.309418 115.342369,311.498962 114.449554,310.610138 
	C113.510666,309.675415 112.451096,308.196960 113.117104,306.670685 
	C113.587303,305.593170 114.196953,304.572266 113.926422,303.422852 
	C112.055656,295.474457 116.399345,291.896240 123.600372,289.938171 
	C124.127640,289.745697 124.291977,289.644928 124.668373,289.347595 
z"/>
<path fill="#7D4EE0" opacity="1.000000" stroke="none" 
	d="
M133.200409,270.573883 
	C132.979996,270.848267 132.518021,270.993988 132.278397,271.029266 
	C122.929054,274.909302 114.565788,269.034760 114.007828,258.003174 
	C114.039780,255.480820 113.919106,253.352997 114.234055,250.854843 
	C115.871017,248.494476 117.562103,249.580673 119.097603,250.346909 
	C121.837151,251.713943 124.683296,252.947021 127.132858,255.457031 
	C128.276825,256.554810 129.403381,256.784393 130.899353,257.023315 
	C134.783615,258.247742 137.366089,260.732117 140.069061,263.615540 
	C139.857849,268.063690 135.302750,267.749023 133.200409,270.573883 
z"/>
<path fill="#906DDC" opacity="1.000000" stroke="none" 
	d="
M140.497314,296.849854 
	C139.952011,296.789001 139.606201,296.622467 139.492493,296.356659 
	C138.535385,294.119293 144.958939,294.698090 141.401627,291.542664 
	C138.357483,288.842438 135.231918,286.055267 130.594543,287.278503 
	C129.964279,287.444733 129.353165,287.683594 128.336792,287.916656 
	C128.977921,284.811981 132.285553,284.638397 134.520706,283.206055 
	C138.851608,280.430664 143.205582,277.522949 148.624512,276.016022 
	C149.202911,276.119415 149.402084,276.236786 149.846634,276.598389 
	C151.700562,278.706818 153.655151,280.079987 155.807373,281.285706 
	C157.417511,282.187714 159.472046,282.923157 159.315887,285.691589 
	C153.053284,289.572418 146.928833,293.135284 140.497314,296.849854 
z"/>
<path fill="#592EBF" opacity="1.000000" stroke="none" 
	d="
M174.202789,218.198975 
	C173.861115,215.503326 175.142578,214.181580 177.281860,212.981674 
	C195.790710,202.600174 214.219650,192.076355 232.691803,181.629181 
	C235.296234,180.156189 236.130035,178.127243 236.098984,175.109894 
	C235.966965,162.281448 236.108383,149.450195 236.303741,136.135635 
	C238.401978,136.373199 237.888565,138.063965 237.891632,139.477829 
	C237.919876,152.467590 237.887695,165.457550 237.935699,178.447189 
	C237.943512,180.560638 237.336380,181.395813 235.188629,182.592880 
	C218.394119,191.953247 201.912689,201.874664 185.138031,211.271957 
	C182.197403,212.919312 179.409943,214.853470 176.155670,216.590240 
	C175.749649,217.203598 175.568604,217.553146 175.200623,218.125702 
	C174.798904,218.363861 174.602982,218.388733 174.202789,218.198975 
z"/>
<path fill="#592EBF" opacity="1.000000" stroke="none" 
	d="
M372.768250,248.851227 
	C376.256317,248.861069 374.906891,251.533096 374.912292,253.406250 
	C375.014374,288.898499 375.013977,324.391022 375.074371,360.337463 
	C375.056946,361.235352 374.858582,361.602997 374.210205,361.994812 
	C373.901123,362.095001 373.483002,361.956696 373.277344,361.877991 
	C372.005554,360.106201 372.545624,358.227203 372.543365,356.445557 
	C372.504730,325.843445 372.515808,295.241302 372.515167,264.161377 
	C372.518036,259.027283 372.512054,254.370987 372.768250,248.851227 
z"/>
<path fill="#4E21B4" opacity="1.000000" stroke="none" 
	d="
M221.899536,218.617645 
	C216.022751,217.732315 216.007355,217.732315 216.006943,224.115448 
	C216.004059,267.384918 216.009354,310.654388 216.008926,353.923859 
	C216.008865,360.964355 216.001801,360.970459 222.937469,360.950867 
	C224.600723,360.946167 226.263794,360.885956 228.376404,360.786835 
	C228.991867,360.984039 229.157883,361.245636 229.081299,361.903625 
	C224.519485,362.673645 220.194763,362.454041 215.475540,362.178833 
	C215.079330,361.937622 215.091400,362.008850 215.060608,362.027740 
	C214.053772,360.329041 214.542511,358.455872 214.540024,356.663300 
	C214.475739,310.371094 214.582626,264.078766 214.291000,217.324371 
	C214.275665,215.518097 213.219040,213.678818 215.331711,213.098938 
	C216.991241,212.643417 217.663116,213.925278 218.092850,215.257065 
	C218.677307,217.068436 221.059296,216.658722 221.899536,218.617645 
z"/>
<path fill="#4E21B4" opacity="1.000000" stroke="none" 
	d="
M373.949158,362.085083 
	C374.134613,361.771332 374.368134,361.447693 374.857727,360.957764 
	C386.975128,361.385925 386.974365,361.385925 386.974182,349.568268 
	C386.973572,309.842224 386.974060,270.116211 386.972321,230.390182 
	C386.972198,227.120758 387.134033,223.809509 384.376770,221.033539 
	C383.885590,220.664047 383.774689,220.366776 383.907074,219.660461 
	C387.669922,216.237061 388.040039,216.234329 388.939453,219.575928 
	C388.144379,221.878326 388.505157,223.894455 388.502380,225.871841 
	C388.438995,270.964600 388.564301,316.057495 388.197754,361.589539 
	C387.971222,362.028870 387.981750,361.972198 388.010559,361.973145 
	C383.673798,363.045380 379.245483,362.282104 374.428497,362.201355 
	C374.008820,361.977753 373.997192,362.075165 373.949158,362.085083 
z"/>
<path fill="#7D4EE0" opacity="1.000000" stroke="none" 
	d="
M159.495209,285.899170 
	C157.188400,281.563599 151.453674,281.655487 149.039276,277.362122 
	C150.788879,274.976379 153.493301,274.214172 155.776825,272.270691 
	C156.024582,272.047943 155.997223,272.003052 156.020950,272.014282 
	C157.371552,270.976349 159.200455,270.962158 160.816589,269.703094 
	C162.802383,269.153442 163.755997,270.177338 164.143158,271.487640 
	C165.243057,275.210297 167.865036,275.745758 171.501556,275.219666 
	C172.572357,275.496002 173.209488,275.850891 173.991898,276.640045 
	C169.411057,279.890686 164.611877,282.839752 159.495209,285.899170 
z"/>
<path fill="#592EBF" opacity="1.000000" stroke="none" 
	d="
M268.936218,254.639771 
	C265.969391,255.280594 264.359589,252.936996 262.293457,251.329254 
	C260.935333,250.272461 259.155914,249.218475 259.008575,252.370728 
	C258.672424,259.562256 258.679291,265.666840 266.540497,270.526031 
	C273.826904,275.029877 280.284149,281.284058 287.356995,286.455017 
	C287.785767,286.768524 287.803711,287.643982 288.014160,288.620728 
	C282.308746,288.054901 279.395386,283.004669 275.052551,280.063263 
	C270.265503,276.821075 266.158295,272.578278 261.386169,269.309784 
	C258.174957,267.110413 256.406921,264.727386 256.926575,260.421509 
	C256.153381,257.984222 256.634003,255.895630 256.758789,253.433899 
	C257.296783,250.812729 255.968063,247.491608 257.782379,246.586990 
	C260.056488,245.453156 261.537537,248.848831 263.511993,250.052689 
	C265.433258,251.224136 267.062134,252.875183 268.936218,254.639771 
z"/>
<path fill="#7753CC" opacity="1.000000" stroke="none" 
	d="
M133.339142,270.803986 
	C133.339691,266.744263 137.923264,267.218536 139.867920,264.350403 
	C141.968140,261.770447 145.328796,261.380371 147.181488,258.451233 
	C147.664734,257.416840 147.943298,256.692688 148.279358,255.527618 
	C150.755905,234.711456 149.051453,214.239548 149.477753,193.805878 
	C149.727692,181.825363 149.431152,169.836685 149.813812,157.429199 
	C150.047836,157.006363 150.539795,156.993973 150.785645,157.003967 
	C151.022583,189.239975 150.833771,221.467911 151.174973,253.690216 
	C151.234558,259.316986 149.477966,262.544128 144.712906,264.843781 
	C140.963074,266.653503 137.364227,268.776093 133.339142,270.803986 
z"/>
<path fill="#906DDC" opacity="1.000000" stroke="none" 
	d="
M114.583954,257.904175 
	C115.702324,267.572998 123.105713,273.132660 131.835083,270.807678 
	C127.556725,275.217621 121.763603,277.280182 116.773354,280.625397 
	C115.654549,281.375397 115.020119,280.324402 114.152771,279.431519 
	C113.118881,277.810425 113.674377,276.325531 113.515404,274.493103 
	C113.515572,272.620331 113.515778,271.179413 113.515495,269.304565 
	C113.521126,265.675446 113.504509,262.480286 113.563026,258.849274 
	C113.791908,258.192749 113.982841,257.972107 114.583954,257.904175 
z"/>
<path fill="#A890D9" opacity="1.000000" stroke="none" 
	d="
M214.069611,217.345032 
	C215.432877,218.060532 214.951859,219.648804 214.952438,221.083633 
	C214.971344,267.756805 214.963623,314.429993 214.994827,361.574890 
	C213.238831,360.858612 214.017975,359.022522 214.016968,357.487762 
	C213.986710,310.934509 214.008743,264.381195 214.069611,217.345032 
z"/>
<path fill="#BDABFF" opacity="1.000000" stroke="none" 
	d="
M388.363342,361.830688 
	C387.989410,317.365173 388.003632,272.701508 388.036407,228.037827 
	C388.038239,225.545502 388.193176,223.053268 388.565674,220.248749 
	C388.821503,267.168488 388.788513,314.400482 388.363342,361.830688 
z"/>
<path fill="#592EBF" opacity="1.000000" stroke="none" 
	d="
M167.709122,105.169052 
	C164.734253,111.115211 157.985046,112.174736 152.930771,115.510735 
	C142.089554,122.666336 130.410385,128.554535 119.047569,134.913879 
	C118.062630,135.465103 116.879585,135.662384 115.416473,136.031937 
	C118.346771,131.096939 124.049263,129.605911 128.755890,126.781410 
	C140.712570,119.606003 152.932159,112.868385 165.059525,105.978447 
	C165.763397,105.578552 166.583160,105.382607 167.709122,105.169052 
z"/>
<path fill="#BDABFF" opacity="1.000000" stroke="none" 
	d="
M114.302071,257.477600 
	C114.101059,261.335754 114.046967,264.727020 113.958298,268.579163 
	C113.786835,269.190369 113.649971,269.340698 113.325356,269.250732 
	C113.087143,237.096085 113.009209,205.181747 113.000153,173.267380 
	C112.996666,160.972504 113.149765,148.677597 113.673065,136.336823 
	C114.114601,136.290924 114.043938,136.582138 114.090225,136.724640 
	C114.788658,138.648895 114.466812,140.499680 114.468201,142.315140 
	C114.490990,172.135040 114.484222,201.954971 114.484810,232.266678 
	C116.590843,240.845718 114.489113,248.926697 114.302071,257.477600 
z"/>
<path fill="#4E21B4" opacity="1.000000" stroke="none" 
	d="
M352.126495,360.287292 
	C352.980316,360.186218 353.759674,360.492218 354.567627,360.661591 
	C364.309418,362.703613 366.012695,361.362244 366.014038,351.610291 
	C366.017822,323.964752 366.010864,296.319244 366.003143,268.673706 
	C366.002502,266.388977 366.584015,263.677032 362.353638,263.980042 
	C363.146210,262.680054 364.577850,261.718597 366.591064,261.193390 
	C367.949554,262.174011 367.246216,263.436798 367.729309,264.801208 
	C367.894135,265.103851 367.985443,265.547302 367.913818,265.762024 
	C367.172668,267.755707 367.504272,269.607330 367.500488,271.422058 
	C367.438293,301.241608 367.563324,331.061279 367.185944,361.308350 
	C366.467468,362.071716 365.988037,362.407532 365.192505,362.769928 
	C360.921722,362.110291 356.927582,362.703735 352.584961,362.224182 
	C352.161560,361.556305 352.113434,361.093597 352.126495,360.287292 
z"/>
<path fill="#FFFFFF" opacity="1.000000" stroke="none" 
	d="
M230.403122,355.786133 
	C229.983368,355.920349 229.966614,355.505524 229.904755,355.307343 
	C229.367218,353.993439 229.520935,352.814392 229.521423,351.657776 
	C229.538605,311.384644 229.467178,271.111511 229.687927,230.359818 
	C229.823700,229.881226 229.950195,229.494751 229.951874,229.291565 
	C231.930145,229.686142 230.947556,231.324295 230.949142,232.416946 
	C231.008026,273.001434 230.997772,313.585999 230.988586,354.170563 
	C230.988480,354.664337 230.880508,355.158142 230.403122,355.786133 
z"/>
<path fill="#592EBF" opacity="1.000000" stroke="none" 
	d="
M340.635193,253.012726 
	C340.903625,257.358643 336.493958,257.900024 334.139893,259.937378 
	C325.916779,267.054291 317.042175,273.420776 308.376404,280.021576 
	C306.966339,281.095612 305.520569,282.400452 303.209229,281.428223 
	C315.661377,272.157745 327.276978,261.685150 340.635193,253.012726 
z"/>
<path fill="#FFFFFF" opacity="1.000000" stroke="none" 
	d="
M372.733337,262.774567 
	C372.918121,295.652832 372.930511,328.277130 373.007324,361.350372 
	C371.026001,360.607849 372.065735,358.622437 372.061798,357.075531 
	C371.982422,326.017700 372.006622,294.959625 372.075439,263.434937 
	C372.280914,262.819061 372.420929,262.669830 372.733337,262.774567 
z"/>
<path fill="#592EBF" opacity="1.000000" stroke="none" 
	d="
M339.429230,302.043182 
	C341.422852,297.682068 345.745422,295.505005 349.565979,292.799500 
	C351.204041,291.639526 352.364899,292.538910 352.877106,294.300385 
	C353.012543,294.766144 352.991058,295.286804 352.988922,295.782013 
	C352.902527,315.981262 352.810089,336.180450 352.451538,356.700653 
	C352.133423,338.093872 352.106720,319.165955 351.992920,300.238586 
	C351.981628,298.354858 352.972504,295.785522 350.849731,294.765533 
	C348.967987,293.861328 348.280182,296.733093 346.531128,297.388672 
	C344.010132,298.333557 342.868042,301.627350 339.429230,302.043182 
z"/>
<path fill="#906DDC" opacity="1.000000" stroke="none" 
	d="
M367.363495,361.632568 
	C366.961456,331.848511 366.970306,301.961121 367.004730,272.073761 
	C367.006805,270.260742 367.212341,268.447968 367.582703,266.305939 
	C367.821533,297.827576 367.800842,329.678406 367.363495,361.632568 
z"/>
<path fill="#592EBF" opacity="1.000000" stroke="none" 
	d="
M288.057007,289.334229 
	C292.819122,290.491974 296.652618,293.600616 300.243164,296.895721 
	C302.483002,298.951233 304.013855,299.170288 306.575928,297.375793 
	C309.739075,295.160339 312.026855,291.527527 316.659332,291.005127 
	C313.643097,295.114990 308.863617,297.571289 305.085602,301.208038 
	C303.928589,302.321808 302.616913,302.050354 301.546387,300.974701 
	C297.399597,296.808044 291.988068,294.152008 288.057007,289.334229 
z"/>
<path fill="#BDABFF" opacity="1.000000" stroke="none" 
	d="
M161.102753,153.389664 
	C161.203552,152.921036 161.535797,152.972214 161.703293,152.986328 
	C162.880630,154.145203 162.465958,155.538803 162.465683,156.822556 
	C162.460831,179.909744 162.545517,202.997025 162.261505,226.546722 
	C162.084732,227.009262 161.902100,227.335739 161.850906,227.515640 
	C161.745529,227.940033 161.691330,228.184540 161.417938,228.123993 
	C161.133133,203.165390 161.067535,178.511841 161.102753,153.389664 
z"/>
<path fill="#4E21B4" opacity="1.000000" stroke="none" 
	d="
M251.212814,313.262573 
	C250.973724,289.344391 250.966431,265.657562 250.959839,241.504517 
	C250.415192,240.313263 250.476242,239.630600 251.489532,239.019653 
	C251.904739,263.385437 251.934158,287.719086 251.908234,312.517212 
	C251.716782,313.152466 251.580704,313.323181 251.212814,313.262573 
z"/>
<path fill="#592EBF" opacity="1.000000" stroke="none" 
	d="
M346.405029,268.041870 
	C346.299683,264.180725 350.033447,263.492004 352.260559,261.578705 
	C357.953003,256.688385 364.008881,252.220566 369.930786,247.598358 
	C370.848694,246.881882 371.749817,245.261826 372.967896,247.672791 
	C373.018219,247.987778 372.950317,248.066010 372.917175,248.105820 
	C372.660278,248.433563 372.447418,248.729355 371.973297,249.001572 
	C363.610413,255.616608 355.435913,262.152832 346.405029,268.041870 
z"/>
<path fill="#592EBF" opacity="1.000000" stroke="none" 
	d="
M364.616913,233.956207 
	C364.803253,238.732468 360.416992,240.744781 357.578339,242.606628 
	C352.778564,245.754807 348.765686,249.963837 343.648651,252.591019 
	C343.083252,252.881302 342.365204,252.874283 341.344360,252.996521 
	C344.756134,247.946213 350.372375,245.004898 355.130402,241.132385 
	C358.097168,238.717819 360.856873,235.875168 364.616913,233.956207 
z"/>
<path fill="#4E21B4" opacity="1.000000" stroke="none" 
	d="
M174.540405,276.778992 
	C173.604996,276.799133 172.999741,276.656647 172.208588,276.262634 
	C171.579315,273.938599 172.664810,272.020538 172.622223,269.596558 
	C172.673523,267.324493 172.469772,265.406830 173.653015,263.321442 
	C173.915192,248.298599 173.945648,233.611801 173.987335,218.454681 
	C173.998550,217.984360 174.430832,218.003754 174.646790,218.016907 
	C176.133484,220.889542 175.416382,223.902756 175.444717,226.834122 
	C175.545990,237.307510 175.484238,247.782471 175.484833,258.721985 
	C175.510025,262.498230 175.429459,265.809814 175.689590,269.539795 
	C175.833359,272.223785 176.773743,274.629028 174.540405,276.778992 
z"/>
<path fill="#592EBF" opacity="1.000000" stroke="none" 
	d="
M307.584290,306.952087 
	C307.942505,307.111664 308.004395,307.365540 307.920349,307.430420 
	C302.953949,311.264923 301.310638,316.172241 302.888672,322.267120 
	C303.221924,323.554230 301.378601,325.155609 303.119080,326.341400 
	C304.862396,327.529114 305.684387,325.416931 306.999542,325.002563 
	C307.782379,324.755890 308.519958,324.365479 309.632935,324.012329 
	C307.943146,327.278076 305.396301,329.895294 301.071930,330.802368 
	C301.071930,324.843536 301.102356,319.252411 301.061951,313.661774 
	C301.031647,309.473267 304.373138,308.461365 307.584290,306.952087 
z"/>
<path fill="#592EBF" opacity="1.000000" stroke="none" 
	d="
M383.863708,219.194916 
	C384.132324,219.537216 384.114258,219.823029 384.046326,220.535095 
	C380.122498,224.321640 376.339417,227.795853 372.334534,230.992157 
	C370.453796,232.493164 368.559265,234.384308 365.348450,233.988419 
	C371.165771,229.025879 377.371399,224.082138 383.863708,219.194916 
z"/>
<path fill="#7753CC" opacity="1.000000" stroke="none" 
	d="
M250.978760,313.496643 
	C250.981018,313.031189 251.416138,312.989960 251.634506,312.985840 
	C251.889252,328.351990 251.925613,343.722290 251.870728,359.554352 
	C251.620804,360.105927 251.462097,360.195709 251.132629,360.071838 
	C250.966751,344.559479 250.971634,329.260803 250.978760,313.496643 
z"/>
<path fill="#A890D9" opacity="1.000000" stroke="none" 
	d="
M175.319580,260.276306 
	C175.075455,246.361115 175.020844,232.659225 174.914490,218.493713 
	C175.047592,217.705215 175.232422,217.380371 175.682220,216.959030 
	C175.965988,230.939499 175.984802,245.016434 175.918182,259.556519 
	C175.724854,260.176270 175.616974,260.332947 175.319580,260.276306 
z"/>
<path fill="#7753CC" opacity="1.000000" stroke="none" 
	d="
M161.131134,228.298615 
	C161.198715,227.818939 161.502533,227.772186 161.651123,227.733856 
	C161.880905,228.529739 161.962112,229.363953 162.074402,230.614670 
	C162.552139,231.728897 162.482422,232.503464 162.270844,233.622131 
	C162.086960,235.052643 162.071564,236.135071 162.085266,237.622681 
	C162.375198,238.430862 162.476395,238.873169 162.278168,239.660431 
	C162.086716,242.028976 162.056427,244.086548 162.048416,246.584747 
	C162.480804,253.037766 162.955734,259.045502 163.343002,265.510681 
	C163.259003,266.886047 162.998688,267.742035 161.695328,268.716583 
	C160.961960,255.539581 161.012756,242.158951 161.131134,228.298615 
z"/>
<path fill="#592EBF" opacity="1.000000" stroke="none" 
	d="
M268.088623,247.361267 
	C273.330078,248.699936 277.750031,251.660156 280.943115,256.693359 
	C276.409332,254.321915 272.101410,251.279312 268.088623,247.361267 
z"/>
<path fill="#592EBF" opacity="1.000000" stroke="none" 
	d="
M329.661316,290.030029 
	C327.719940,294.865601 323.260040,296.982300 318.318787,298.949951 
	C320.956055,294.987030 325.218719,292.632629 329.661316,290.030029 
z"/>
<path fill="#592EBF" opacity="1.000000" stroke="none" 
	d="
M318.916809,318.228149 
	C317.908783,317.325378 318.312927,316.601379 319.229156,315.914856 
	C322.617462,313.375977 325.979004,310.801331 329.658203,308.095581 
	C330.106598,308.128632 330.247406,308.306305 330.207733,308.772156 
	C327.263550,313.084412 323.193756,315.541870 318.916809,318.228149 
z"/>
<path fill="#592EBF" opacity="1.000000" stroke="none" 
	d="
M251.942841,238.706390 
	C251.588562,239.521423 251.301834,239.991028 250.987793,240.749451 
	C249.561615,238.739456 249.001328,235.555115 251.479218,234.682190 
	C254.905182,233.475250 257.255707,236.451035 258.988464,239.692444 
	C256.452332,240.333435 255.754578,237.598221 253.738434,236.819992 
	C251.524445,235.965347 252.174911,237.411346 251.942841,238.706390 
z"/>
<path fill="#592EBF" opacity="1.000000" stroke="none" 
	d="
M280.957184,257.410767 
	C285.501312,258.266510 289.101959,260.815369 291.548950,265.063171 
	C287.748108,263.061340 284.088745,260.780090 280.957184,257.410767 
z"/>
<path fill="#592EBF" opacity="1.000000" stroke="none" 
	d="
M332.352173,278.900269 
	C332.894257,274.458313 336.464203,273.073212 340.685913,272.031677 
	C339.485779,275.811066 335.822174,276.966125 332.352173,278.900269 
z"/>
<path fill="#4E21B4" opacity="1.000000" stroke="none" 
	d="
M298.757629,270.232361 
	C301.498444,269.670898 300.915375,267.741669 300.978546,266.210052 
	C301.125824,262.639069 301.219238,259.065918 301.595581,255.157135 
	C303.200592,260.549194 302.196960,266.355194 302.209351,272.554443 
	C301.526459,274.176849 300.997162,273.296509 300.247253,272.931946 
	C299.529694,272.463654 299.536957,271.845612 298.989014,271.289734 
	C298.726654,271.199066 298.674103,271.297302 298.619019,271.288940 
	C298.545074,271.027100 298.526245,270.773621 298.757629,270.232361 
z"/>
<path fill="#4E21B4" opacity="1.000000" stroke="none" 
	d="
M250.596619,360.060303 
	C250.961868,359.858185 251.368347,359.949524 251.573914,359.982849 
	C252.127686,361.194092 251.421967,361.946472 250.398621,362.760254 
	C246.324463,362.110748 242.517929,362.625458 238.348206,362.675232 
	C236.988159,362.942535 236.236542,362.750885 236.298050,361.224121 
	C240.982193,360.647491 245.664474,361.700836 250.596619,360.060303 
z"/>
<path fill="#592EBF" opacity="1.000000" stroke="none" 
	d="
M177.924515,101.634323 
	C174.776901,101.577934 172.953171,105.123672 169.408875,105.015938 
	C171.368317,102.390129 173.200073,98.583206 177.924515,101.634323 
z"/>
<path fill="#592EBF" opacity="1.000000" stroke="none" 
	d="
M324.357269,285.016754 
	C324.932800,281.213684 327.740997,279.664764 331.659119,279.017761 
	C330.325378,281.915924 327.543304,283.487396 324.357269,285.016754 
z"/>
<path fill="#BDABFF" opacity="1.000000" stroke="none" 
	d="
M302.395081,272.815125 
	C301.990479,267.256287 301.989655,261.524170 301.922791,255.306335 
	C301.856750,254.820633 301.946381,254.442078 301.907837,254.251617 
	C304.200836,256.157501 302.780487,258.866333 302.912842,261.265015 
	C303.121368,265.043701 302.860870,268.848236 302.395081,272.815125 
z"/>
<path fill="#592EBF" opacity="1.000000" stroke="none" 
	d="
M260.102539,241.304871 
	C263.759003,241.091599 265.839172,243.720795 267.948212,246.678619 
	C264.732300,246.158920 262.305115,244.138351 260.102539,241.304871 
z"/>
<path fill="#7753CC" opacity="1.000000" stroke="none" 
	d="
M155.664795,272.062805 
	C154.945770,275.007629 152.228378,275.854279 149.351196,276.999268 
	C148.991684,276.874542 148.984756,276.700012 148.990768,276.263733 
	C150.334030,273.457336 153.102524,273.221893 155.664795,272.062805 
z"/>
<path fill="#BDABFF" opacity="1.000000" stroke="none" 
	d="
M215.270691,362.325256 
	C219.412994,361.957062 223.746674,361.976471 228.541321,361.936432 
	C229.169327,361.768585 229.336349,361.660156 229.744507,361.727966 
	C225.258850,364.228302 220.317734,362.703491 215.270691,362.325256 
z"/>
<path fill="#4E21B4" opacity="1.000000" stroke="none" 
	d="
M330.377014,309.018463 
	C330.016357,308.875641 330.005493,308.690948 329.980194,308.228607 
	C330.919830,306.074829 333.107452,305.683838 334.720062,304.100891 
	C335.446136,303.621613 335.932831,303.489349 336.782288,303.799133 
	C335.721985,306.655975 333.053467,307.595978 330.377014,309.018463 
z"/>
<path fill="#592EBF" opacity="1.000000" stroke="none" 
	d="
M347.653381,276.028107 
	C346.632477,278.573212 344.782471,280.552948 341.355652,281.006714 
	C342.277893,278.309692 344.488342,276.800171 347.653381,276.028107 
z"/>
<path fill="#BDABFF" opacity="1.000000" stroke="none" 
	d="
M371.806213,249.431122 
	C371.933319,248.735916 372.166595,248.502472 372.641968,248.207336 
	C372.941467,252.798782 372.998901,257.451935 372.981018,262.566803 
	C372.905731,263.028503 372.525085,262.975159 372.333008,262.971710 
	C372.064728,258.609802 371.988556,254.251343 371.806213,249.431122 
z"/>
<path fill="#BDABFF" opacity="1.000000" stroke="none" 
	d="
M374.154724,362.394043 
	C378.375458,362.009552 382.742096,362.041351 387.574036,362.023621 
	C383.570007,364.063812 378.887909,362.657959 374.154724,362.394043 
z"/>
<path fill="#4E21B4" opacity="1.000000" stroke="none" 
	d="
M359.575592,265.885803 
	C359.470001,268.888458 357.682404,270.555237 354.310791,270.951477 
	C355.133545,268.652924 357.595367,267.721893 359.575592,265.885803 
z"/>
<path fill="#BDABFF" opacity="1.000000" stroke="none" 
	d="
M352.323181,362.433044 
	C356.236877,362.094177 360.264069,362.169403 364.583832,362.520569 
	C360.729828,362.813385 356.583221,362.830261 352.323181,362.433044 
z"/>
<path fill="#592EBF" opacity="1.000000" stroke="none" 
	d="
M189.916367,108.680977 
	C187.246521,108.911018 184.848129,107.975296 183.044159,105.343857 
	C185.494980,105.637756 187.880692,106.510864 189.916367,108.680977 
z"/>
<path fill="#592EBF" opacity="1.000000" stroke="none" 
	d="
M341.406555,272.016266 
	C341.267914,269.447174 342.787659,268.199585 345.675598,268.022736 
	C345.790710,270.638336 343.268433,270.751526 341.406555,272.016266 
z"/>
<path fill="#BDABFF" opacity="1.000000" stroke="none" 
	d="
M238.429901,362.903595 
	C241.737534,361.205627 245.642624,362.338470 249.792847,362.541412 
	C246.362518,362.879913 242.626816,362.931305 238.429901,362.903595 
z"/>
<path fill="#592EBF" opacity="1.000000" stroke="none" 
	d="
M298.846069,269.643738 
	C298.966583,270.176636 298.925385,270.408722 298.724060,270.960724 
	C296.396027,270.935699 295.685791,268.842102 294.083130,267.353943 
	C296.080017,266.672485 297.498047,267.768372 298.846069,269.643738 
z"/>
<path fill="#4E21B4" opacity="1.000000" stroke="none" 
	d="
M318.174988,290.166504 
	C318.387177,287.486511 319.805389,286.128784 322.682007,286.021973 
	C321.917877,287.270630 320.788025,288.507904 319.374329,289.884827 
	C318.876373,290.159882 318.662262,290.295258 318.174988,290.166504 
z"/>
<path fill="#592EBF" opacity="1.000000" stroke="none" 
	d="
M339.633545,281.955627 
	C339.916901,284.708557 337.673401,285.182831 335.350037,285.977692 
	C335.340759,283.512421 337.630310,283.091797 339.633545,281.955627 
z"/>
<path fill="#BDABFF" opacity="1.000000" stroke="none" 
	d="
M175.065247,260.498230 
	C175.130081,260.062988 175.480865,260.032104 175.656799,260.025879 
	C175.878647,263.032257 175.924530,266.044922 175.909698,269.508301 
	C173.985962,267.099091 175.394867,263.931488 175.065247,260.498230 
z"/>
<path fill="#7753CC" opacity="1.000000" stroke="none" 
	d="
M161.298950,269.786224 
	C160.196869,271.857635 158.567444,272.106720 156.413635,272.027039 
	C156.746948,270.055695 158.703339,269.827728 160.572739,268.964569 
	C160.911163,268.920227 161.019592,269.005249 161.074768,269.046570 
	C161.265762,269.250549 161.401581,269.413269 161.298950,269.786224 
z"/>
<path fill="#592EBF" opacity="1.000000" stroke="none" 
	d="
M224.873566,128.699738 
	C223.042313,128.965240 220.868286,129.362671 220.012451,126.401382 
	C221.902069,126.117760 223.516434,126.847466 224.873566,128.699738 
z"/>
<path fill="#592EBF" opacity="1.000000" stroke="none" 
	d="
M182.878311,104.684860 
	C181.004547,104.988693 179.118073,104.732689 178.068115,102.296921 
	C179.863647,102.240654 181.502518,102.921997 182.878311,104.684860 
z"/>
<path fill="#592EBF" opacity="1.000000" stroke="none" 
	d="
M233.828934,133.719421 
	C232.045395,133.991928 229.968811,134.314011 229.008255,131.561401 
	C231.294785,130.259628 231.858658,133.217300 233.828934,133.719421 
z"/>
<path fill="#592EBF" opacity="1.000000" stroke="none" 
	d="
M334.646118,286.025940 
	C334.881134,288.097198 333.193420,288.440674 331.312500,288.985901 
	C330.801300,286.595062 332.908539,286.736816 334.646118,286.025940 
z"/>
<path fill="#592EBF" opacity="1.000000" stroke="none" 
	d="
M312.661865,302.999939 
	C312.942627,305.116669 311.694336,305.946381 309.392029,306.024170 
	C309.740021,304.586060 310.531036,303.244446 312.661865,302.999939 
z"/>
<path fill="#592EBF" opacity="1.000000" stroke="none" 
	d="
M353.626373,270.949768 
	C353.930939,273.064789 352.739471,273.975342 350.353027,274.000244 
	C350.721130,272.575928 351.719757,271.456329 353.626373,270.949768 
z"/>
<path fill="#FFFFFF" opacity="1.000000" stroke="none" 
	d="
M256.575195,253.168213 
	C256.963470,255.066910 256.976105,257.102203 256.942017,259.572632 
	C255.130692,257.932526 256.254333,255.557510 256.575195,253.168213 
z"/>
<path fill="#592EBF" opacity="1.000000" stroke="none" 
	d="
M337.444336,304.031891 
	C336.628693,304.021942 336.167114,304.003937 335.359894,303.970642 
	C335.686737,302.541656 336.813782,301.912628 338.714600,302.043579 
	C339.080688,303.007019 339.276642,304.058624 337.444336,304.031891 
z"/>
<path fill="#592EBF" opacity="1.000000" stroke="none" 
	d="
M205.913757,117.646164 
	C204.624817,117.875618 202.987701,118.516975 202.048004,116.377602 
	C203.254211,116.453560 204.525681,116.888123 205.913757,117.646164 
z"/>
<path fill="#592EBF" opacity="1.000000" stroke="none" 
	d="
M230.264740,361.745728 
	C229.985657,361.904205 229.492432,361.939728 229.247375,361.908356 
	C228.986359,361.683411 228.970398,361.489807 228.890137,361.009338 
	C228.988739,359.636383 229.151642,358.550354 229.538940,357.214844 
	C230.023499,358.506012 230.283661,360.046600 230.264740,361.745728 
z"/>
<path fill="#592EBF" opacity="1.000000" stroke="none" 
	d="
M279.969421,263.679047 
	C278.466003,264.048523 277.010681,263.899872 276.995850,261.378479 
	C277.951447,261.796295 278.904877,262.589142 279.969421,263.679047 
z"/>
<path fill="#4E21B4" opacity="1.000000" stroke="none" 
	d="
M226.979111,222.643890 
	C225.887512,222.984024 224.609909,223.221115 224.054077,221.334106 
	C225.281235,220.758087 226.166122,221.363937 226.979111,222.643890 
z"/>
<path fill="#592EBF" opacity="1.000000" stroke="none" 
	d="
M287.892761,269.700745 
	C286.808990,270.000092 285.550781,270.165924 285.058228,268.298248 
	C286.229065,267.891327 287.125549,268.427643 287.892761,269.700745 
z"/>
<path fill="#592EBF" opacity="1.000000" stroke="none" 
	d="
M296.908752,276.704346 
	C295.861633,276.979431 294.602722,277.185181 294.026062,275.381226 
	C295.196716,274.902618 296.094299,275.450531 296.908752,276.704346 
z"/>
<path fill="#592EBF" opacity="1.000000" stroke="none" 
	d="
M201.873352,115.704224 
	C200.834793,115.965500 199.567596,116.170799 199.041580,114.332611 
	C200.260727,113.784004 201.109634,114.395462 201.873352,115.704224 
z"/>
<path fill="#BDABFF" opacity="1.000000" stroke="none" 
	d="
M113.727386,273.733459 
	C113.975548,275.392944 114.024063,276.828033 114.041916,278.693787 
	C111.894295,278.093781 113.389854,276.219086 113.076057,274.382660 
	C113.279022,273.822906 113.403381,273.665985 113.727386,273.733459 
z"/>
<path fill="#FFFFFF" opacity="1.000000" stroke="none" 
	d="
M113.959366,273.549347 
	C113.927032,273.957825 113.541435,273.993011 113.348045,273.986420 
	C113.106308,272.598267 113.057953,271.216736 113.073593,269.422791 
	C113.137596,269.010437 113.533653,268.990692 113.728683,269.015381 
	C113.946381,270.406982 113.969040,271.773926 113.959366,273.549347 
z"/>
<path fill="#592EBF" opacity="1.000000" stroke="none" 
	d="
M317.629456,298.983948 
	C317.979431,300.516815 317.070190,301.029480 315.312683,300.978729 
	C315.448120,299.961578 316.074371,299.120087 317.629456,298.983948 
z"/>
<path fill="#592EBF" opacity="1.000000" stroke="none" 
	d="
M273.919800,258.706116 
	C272.851379,258.987091 271.583527,259.171356 271.048096,257.327667 
	C272.259216,256.814758 273.132965,257.416534 273.919800,258.706116 
z"/>
<path fill="#592EBF" opacity="1.000000" stroke="none" 
	d="
M208.915512,119.683167 
	C207.877380,119.938225 206.589386,120.183372 206.060272,118.316269 
	C207.231750,117.887054 208.094864,118.476013 208.915512,119.683167 
z"/>
<path fill="#906DDC" opacity="1.000000" stroke="none" 
	d="
M367.951782,264.722839 
	C366.616638,264.328888 367.090668,263.055420 366.960205,261.597595 
	C368.905731,261.713623 367.620331,263.321320 367.951782,264.722839 
z"/>
<path fill="#592EBF" opacity="1.000000" stroke="none" 
	d="
M236.283722,135.212082 
	C235.376526,135.977463 234.556015,135.873734 234.025085,134.389465 
	C234.811890,134.058273 235.746078,133.847290 236.283722,135.212082 
z"/>
<path fill="#592EBF" opacity="1.000000" stroke="none" 
	d="
M310.288025,323.953552 
	C310.093658,322.931152 310.449860,322.123596 312.059631,322.436646 
	C312.033081,323.393555 311.487579,323.898376 310.288025,323.953552 
z"/>
<path fill="#592EBF" opacity="1.000000" stroke="none" 
	d="
M291.756500,265.882996 
	C292.657684,264.969025 293.447662,265.104401 293.926300,266.698792 
	C293.122162,267.080383 292.378510,266.897308 291.756500,265.882996 
z"/>
<path fill="#592EBF" opacity="1.000000" stroke="none" 
	d="
M316.366364,320.159729 
	C316.101044,319.085602 316.322632,318.140930 318.080566,318.462311 
	C318.176971,319.542023 317.744598,320.203552 316.366364,320.159729 
z"/>
<path fill="#592EBF" opacity="1.000000" stroke="none" 
	d="
M312.729309,322.346741 
	C312.311432,321.002563 313.364624,321.055695 314.661438,320.970459 
	C314.768921,322.051086 313.692810,321.834717 312.729309,322.346741 
z"/>
<path fill="#592EBF" opacity="1.000000" stroke="none" 
	d="
M298.633362,271.502014 
	C299.131989,271.546783 299.537292,271.894470 299.974976,272.535400 
	C299.518250,272.487396 299.029175,272.146179 298.633362,271.502014 
z"/>
<path fill="#592EBF" opacity="1.000000" stroke="none" 
	d="
M317.692261,290.037964 
	C318.099640,289.925323 318.297455,289.948273 318.792847,289.997864 
	C318.903168,290.765564 318.369904,291.023315 317.342346,291.039551 
	C317.056519,290.685364 317.211426,290.398071 317.692261,290.037964 
z"/>
<path fill="#592EBF" opacity="1.000000" stroke="none" 
	d="
M229.829865,226.741074 
	C229.481461,226.555450 229.231384,226.061127 228.988525,225.279251 
	C229.758347,225.179520 229.951157,225.736130 229.829865,226.741074 
z"/>
<path fill="#592EBF" opacity="1.000000" stroke="none" 
	d="
M299.901794,251.680939 
	C299.437042,251.811249 298.875427,251.643982 298.175110,251.205826 
	C298.625916,251.084412 299.215454,251.233887 299.901794,251.680939 
z"/>
<path fill="#592EBF" opacity="1.000000" stroke="none" 
	d="
M213.050507,121.682579 
	C212.820694,121.835052 212.516266,121.689575 212.053009,121.340240 
	C212.254745,121.219131 212.615295,121.301880 213.050507,121.682579 
z"/>
<path fill="#906DDC" opacity="1.000000" stroke="none" 
	d="
M124.647804,289.110657 
	C124.772148,289.410065 124.596359,289.609619 124.158173,289.798035 
	C123.948204,289.491211 124.098831,289.232483 124.647804,289.110657 
z"/>
<path fill="#592EBF" opacity="1.000000" stroke="none" 
	d="
M228.942810,224.748962 
	C228.732605,224.829147 228.456268,224.652878 228.079163,224.246552 
	C228.277832,224.175156 228.577255,224.333817 228.942810,224.748962 
z"/>
<path fill="#592EBF" opacity="1.000000" stroke="none" 
	d="
M298.934753,278.756958 
	C298.659821,278.934937 298.389252,278.753723 298.096069,278.233398 
	C298.288879,278.171234 298.577454,278.339111 298.934753,278.756958 
z"/>
<path fill="#592EBF" opacity="1.000000" stroke="none" 
	d="
M300.934845,279.761047 
	C300.699982,279.990906 300.434143,279.874634 300.089691,279.470459 
	C300.263306,279.363770 300.560883,279.441193 300.934845,279.761047 
z"/>
<path fill="#4E21B4" opacity="1.000000" stroke="none" 
	d="
M223.954529,220.738663 
	C223.742172,220.811127 223.464813,220.632156 223.107239,220.212982 
	C223.314514,220.144241 223.602020,220.315735 223.954529,220.738663 
z"/>
<path fill="#592EBF" opacity="1.000000" stroke="none" 
	d="
M210.962112,120.749069 
	C210.704636,120.989998 210.429276,120.860580 210.076080,120.427887 
	C210.262192,120.318695 210.577499,120.403404 210.962112,120.749069 
z"/>
<path fill="#592EBF" opacity="1.000000" stroke="none" 
	d="
M301.984558,280.734009 
	C301.782959,280.811371 301.493958,280.636749 301.099670,280.225525 
	C301.295349,280.153320 301.596222,280.317688 301.984558,280.734009 
z"/>
<path fill="#4E21B4" opacity="1.000000" stroke="none" 
	d="
M222.974823,219.716782 
	C222.677261,219.917526 222.404373,219.741470 222.126068,219.209991 
	C222.335968,219.136688 222.628906,219.298492 222.974823,219.716782 
z"/>
<path fill="#592EBF" opacity="1.000000" stroke="none" 
	d="
M191.927917,109.755714 
	C191.682343,109.972916 191.416718,109.842323 191.072357,109.426453 
	C191.250336,109.327797 191.555099,109.416702 191.927917,109.755714 
z"/>
<path fill="#592EBF" opacity="1.000000" stroke="none" 
	d="
M193.995010,110.722519 
	C193.714386,110.987999 193.427994,110.854095 193.059357,110.403915 
	C193.260315,110.282028 193.597702,110.360527 193.995010,110.722519 
z"/>
<path fill="#592EBF" opacity="1.000000" stroke="none" 
	d="
M308.759094,306.083252 
	C308.818634,306.297241 308.628418,306.561798 308.195862,306.891479 
	C308.138763,306.682343 308.324036,306.408051 308.759094,306.083252 
z"/>
<path fill="#592EBF" opacity="1.000000" stroke="none" 
	d="
M313.722748,302.050354 
	C313.805328,302.255127 313.643463,302.538574 313.246704,302.911713 
	C313.167297,302.710602 313.322815,302.419800 313.722748,302.050354 
z"/>
<path fill="#592EBF" opacity="1.000000" stroke="none" 
	d="
M314.703430,300.992676 
	C314.797577,301.227295 314.622467,301.509644 314.207642,301.880157 
	C314.123322,301.659027 314.278748,301.349701 314.703430,300.992676 
z"/>
<path fill="#592EBF" opacity="1.000000" stroke="none" 
	d="
M197.008423,112.717018 
	C196.757294,112.962997 196.473007,112.835861 196.091812,112.414963 
	C196.275085,112.299644 196.601868,112.373878 197.008423,112.717018 
z"/>
<path fill="#592EBF" opacity="1.000000" stroke="none" 
	d="
M198.949280,113.745605 
	C198.694839,113.976784 198.426498,113.846123 198.083099,113.419647 
	C198.265823,113.315880 198.574951,113.402527 198.949280,113.745605 
z"/>
<path fill="#592EBF" opacity="1.000000" stroke="none" 
	d="
M295.031555,248.707458 
	C294.818970,248.785278 294.517761,248.600021 294.112518,248.164276 
	C294.319946,248.090652 294.631439,248.267502 295.031555,248.707458 
z"/>
<path fill="#592EBF" opacity="1.000000" stroke="none" 
	d="
M269.975708,255.728882 
	C269.765442,255.798843 269.483093,255.614090 269.113068,255.185425 
	C269.318176,255.119080 269.610901,255.296616 269.975708,255.728882 
z"/>
<path fill="#4E21B4" opacity="1.000000" stroke="none" 
	d="
M300.974121,252.699799 
	C300.675751,252.923264 300.403107,252.762115 300.133942,252.232559 
	C300.344543,252.150406 300.632050,252.300751 300.974121,252.699799 
z"/>
<path fill="#592EBF" opacity="1.000000" stroke="none" 
	d="
M297.999908,250.695908 
	C297.776611,250.778503 297.496307,250.601715 297.133240,250.182938 
	C297.347961,250.106140 297.645447,250.271332 297.999908,250.695908 
z"/>
<path fill="#592EBF" opacity="1.000000" stroke="none" 
	d="
M296.987549,249.674011 
	C296.719513,249.928909 296.435638,249.796722 296.066833,249.351379 
	C296.257416,249.238052 296.587341,249.320953 296.987549,249.674011 
z"/>
<path fill="#592EBF" opacity="1.000000" stroke="none" 
	d="
M279.982635,236.691467 
	C279.725342,236.943436 279.449188,236.818863 279.090057,236.390930 
	C279.274780,236.276871 279.593689,236.352676 279.982635,236.691467 
z"/>
<path fill="#592EBF" opacity="1.000000" stroke="none" 
	d="
M270.960571,256.739502 
	C270.744751,256.810455 270.468353,256.622253 270.104065,256.193024 
	C270.310822,256.128113 270.605408,256.304230 270.960571,256.739502 
z"/>
<path fill="#592EBF" opacity="1.000000" stroke="none" 
	d="
M280.991089,237.739853 
	C280.761017,237.816864 280.483887,237.625748 280.123840,237.190430 
	C280.341919,237.121384 280.642944,237.296555 280.991089,237.739853 
z"/>
<path fill="#592EBF" opacity="1.000000" stroke="none" 
	d="
M293.023041,246.695190 
	C292.745880,246.968414 292.450134,246.836700 292.058563,246.389236 
	C292.258148,246.262146 292.605377,246.334396 293.023041,246.695190 
z"/>
<path fill="#592EBF" opacity="1.000000" stroke="none" 
	d="
M289.022125,243.725327 
	C288.789185,243.813019 288.505310,243.629822 288.133667,243.202850 
	C288.354309,243.124207 288.662750,243.289322 289.022125,243.725327 
z"/>
<path fill="#592EBF" opacity="1.000000" stroke="none" 
	d="
M287.962708,242.688843 
	C287.704620,242.950424 287.424377,242.830826 287.060455,242.398529 
	C287.246490,242.280624 287.567749,242.354568 287.962708,242.688843 
z"/>
<path fill="#592EBF" opacity="1.000000" stroke="none" 
	d="
M285.995300,241.730133 
	C285.785583,241.806488 285.494263,241.622513 285.098938,241.196014 
	C285.301178,241.125580 285.607452,241.297699 285.995300,241.730133 
z"/>
<path fill="#592EBF" opacity="1.000000" stroke="none" 
	d="
M283.950867,239.754211 
	C283.687103,239.993973 283.420776,239.864273 283.084259,239.437408 
	C283.273926,239.327637 283.585327,239.409134 283.950867,239.754211 
z"/>
<path fill="#592EBF" opacity="1.000000" stroke="none" 
	d="
M219.914856,125.769913 
	C219.652863,125.993149 219.394150,125.859047 219.070129,125.435043 
	C219.257416,125.334343 219.561859,125.423492 219.914856,125.769913 
z"/>
<path fill="#592EBF" opacity="1.000000" stroke="none" 
	d="
M348.740112,275.053802 
	C348.812561,275.251434 348.639526,275.531921 348.233582,275.911072 
	C348.165344,275.718719 348.330017,275.427673 348.740112,275.053802 
z"/>
<path fill="#592EBF" opacity="1.000000" stroke="none" 
	d="
M349.727051,274.038391 
	C349.807098,274.259216 349.627441,274.535797 349.209412,274.899658 
	C349.136475,274.689331 349.301910,274.391754 349.727051,274.038391 
z"/>
<path fill="#592EBF" opacity="1.000000" stroke="none" 
	d="
M293.904907,274.770569 
	C293.629211,274.945160 293.363556,274.766266 293.069763,274.261475 
	C293.264954,274.196808 293.556030,274.357300 293.904907,274.770569 
z"/>
<path fill="#592EBF" opacity="1.000000" stroke="none" 
	d="
M217.936218,124.766525 
	C217.704254,124.984253 217.445267,124.864029 217.113617,124.461655 
	C217.361694,124.091698 217.651123,124.174721 217.936218,124.766525 
z"/>
<path fill="#592EBF" opacity="1.000000" stroke="none" 
	d="
M291.931335,272.772827 
	C291.712585,272.837097 291.441772,272.645782 291.101532,272.209717 
	C291.314514,272.149078 291.596893,272.333130 291.931335,272.772827 
z"/>
<path fill="#592EBF" opacity="1.000000" stroke="none" 
	d="
M290.986603,271.681458 
	C290.705017,271.944489 290.425201,271.811371 290.057220,271.376282 
	C290.256256,271.255096 290.596069,271.325439 290.986603,271.681458 
z"/>
<path fill="#592EBF" opacity="1.000000" stroke="none" 
	d="
M288.917816,270.762634 
	C288.640472,270.943817 288.368896,270.767212 288.076141,270.253113 
	C288.274841,270.185822 288.564392,270.348846 288.917816,270.762634 
z"/>
<path fill="#592EBF" opacity="1.000000" stroke="none" 
	d="
M215.039062,122.697586 
	C214.822754,122.851601 214.515808,122.722374 214.053375,122.390732 
	C214.248077,122.263664 214.598236,122.339005 215.039062,122.697586 
z"/>
<path fill="#592EBF" opacity="1.000000" stroke="none" 
	d="
M284.995789,267.709961 
	C284.764374,267.797455 284.479309,267.611206 284.094727,267.183807 
	C284.310822,267.107208 284.626465,267.271729 284.995789,267.709961 
z"/>
<path fill="#592EBF" opacity="1.000000" stroke="none" 
	d="
M283.028931,265.723999 
	C282.793762,265.810577 282.508575,265.625244 282.138611,265.192657 
	C282.362213,265.114319 282.670563,265.283234 283.028931,265.723999 
z"/>
<path fill="#592EBF" opacity="1.000000" stroke="none" 
	d="
M281.984192,264.666748 
	C281.715454,264.935791 281.431274,264.811707 281.058960,264.374603 
	C281.250977,264.252533 281.583618,264.323181 281.984192,264.666748 
z"/>
<path fill="#592EBF" opacity="1.000000" stroke="none" 
	d="
M227.008789,129.712311 
	C226.730377,129.973404 226.435303,129.833893 226.045685,129.379242 
	C226.244354,129.260406 226.591370,129.342957 227.008789,129.712311 
z"/>
<path fill="#592EBF" opacity="1.000000" stroke="none" 
	d="
M276.927155,260.754883 
	C276.681854,261.008636 276.415802,260.898743 276.077881,260.486115 
	C276.257904,260.369415 276.558075,260.438690 276.927155,260.754883 
z"/>
<path fill="#000000" opacity="1.000000" stroke="none" 
	d="
M205.250870,144.259827 
	C204.538849,143.727020 204.090881,143.413773 203.358078,143.041321 
	C202.819595,142.771866 202.578140,142.548416 202.171722,142.139954 
	C201.929413,141.654526 201.770584,141.399185 201.315613,141.094376 
	C200.866135,140.775726 200.611771,140.574066 200.128662,140.280533 
	C199.907227,140.179459 199.464355,140.111526 199.245651,140.062988 
	C197.512970,139.164993 195.589798,139.041656 194.263458,137.213242 
	C194.037125,136.968903 194.002426,136.996948 194.014084,136.977859 
	C191.718491,136.038956 189.181473,135.547272 187.273178,133.202209 
	C187.044174,132.946945 186.994308,132.984055 187.022217,132.973206 
	C186.875595,132.812851 186.701065,132.663345 186.220108,132.355988 
	C185.913681,132.198120 185.480667,132.119888 185.268433,132.061996 
	C184.841034,131.764755 184.601227,131.553421 184.120850,131.265045 
	C183.904968,131.160004 183.509140,131.058502 183.307953,131.022919 
	C181.637573,130.006683 179.839432,129.626816 178.241974,128.218094 
	C178.007401,127.984146 177.998566,127.999527 178.006622,127.997169 
	C177.856812,127.837753 177.698975,127.680695 177.236786,127.386002 
	C176.529419,127.231094 176.126389,127.213829 175.421356,127.219048 
	C167.993561,132.207581 160.098892,135.820435 152.229950,140.172348 
	C151.452225,140.406113 150.998810,140.499847 150.255310,140.763992 
	C149.970795,140.961411 149.983658,141.000671 149.969727,140.983154 
	C147.932999,143.223907 145.383286,144.632278 142.257416,145.755371 
	C141.976578,145.946457 141.988297,145.985855 141.969666,145.977173 
	C140.243774,147.274002 138.111481,148.143570 137.242447,150.808258 
	C136.856949,155.099213 137.058502,159.023865 136.996918,163.397583 
	C136.995895,188.481750 136.996811,213.114136 136.996857,238.198257 
	C136.916473,241.503342 137.025543,244.346802 137.511276,247.590271 
	C137.637909,248.283340 137.694885,248.560410 137.765472,249.263519 
	C137.630402,251.240906 136.833817,252.470078 135.674225,253.404831 
	C133.772629,254.937698 131.629013,256.657837 129.144943,255.836533 
	C126.875298,255.086136 126.872078,252.534454 126.637962,249.972961 
	C127.395180,219.105698 126.825958,188.685852 127.024582,157.823212 
	C127.485924,154.375748 127.904373,151.372681 127.406372,147.944550 
	C126.907013,143.398819 129.996048,141.673416 132.862488,140.070755 
	C142.712906,134.563309 152.516586,128.979599 162.253510,123.272972 
	C165.962814,121.099022 169.646530,118.869263 173.452805,116.851433 
	C175.395737,115.821419 177.090118,115.630600 179.052200,116.796150 
	C191.447540,124.159462 204.163605,130.970901 216.728363,138.761688 
	C216.995590,139.019394 217.002045,138.998871 216.991730,139.001678 
	C219.220963,140.055527 221.399979,141.217087 223.711060,142.809372 
	C223.943512,143.056747 223.988815,143.088272 224.014130,143.077255 
	C224.872391,144.401978 224.413498,145.652893 223.525864,147.203690 
	C220.180893,149.157715 217.145813,151.255859 213.299881,148.261017 
	C212.993896,147.998093 212.999390,148.000717 213.000458,148.003815 
	C212.264664,147.294678 211.196640,147.112167 210.252930,146.185043 
	C210.054184,145.957214 210.007141,145.988968 210.020966,145.964142 
	C208.644623,145.092163 206.911530,145.306641 205.250870,144.259827 
z"/>
<path fill="#000000" opacity="1.000000" stroke="none" 
	d="
M207.697647,171.060394 
	C208.618469,170.827454 209.175079,170.667877 209.850586,170.240204 
	C210.239441,169.798080 210.475235,169.586075 210.844482,169.166168 
	C211.012070,168.996262 210.997925,168.997849 210.998138,169.004913 
	C213.494690,167.372437 216.164001,166.024414 218.743774,164.530746 
	C223.262405,161.914444 225.109680,163.159210 224.977371,168.449783 
	C224.940582,169.920700 225.195297,171.506454 223.328522,172.754791 
	C222.970688,172.989532 223.004318,172.998886 222.996460,172.983246 
	C220.878799,175.112885 218.187195,176.316345 215.267700,177.790695 
	C215.005661,178.006332 215.000000,178.000000 215.002991,178.003143 
	C210.834763,181.073257 206.316040,183.522049 201.281555,185.766876 
	C200.996002,185.972412 200.994049,185.992249 200.984116,185.992065 
	C197.554169,188.869781 193.488586,190.623917 189.240051,192.758667 
	C188.949188,192.951462 189.004883,192.990036 188.979935,192.965393 
	C186.468384,195.076660 183.855850,196.983047 180.231094,197.766449 
	C179.943222,197.963699 180.001419,197.994171 179.983917,197.966370 
	C178.657043,198.985733 177.399719,200.323853 175.419250,198.351898 
	C174.920563,195.834457 174.876709,193.683701 175.373962,191.162949 
	C177.161728,186.863907 181.297516,185.989990 184.417984,184.103546 
	C191.921219,179.567551 199.697327,175.464828 207.697647,171.060394 
z"/>
<path fill="#592EBF" opacity="1.000000" stroke="none" 
	d="
M128.290253,155.554535 
	C128.077271,187.340088 128.017197,218.698090 127.886734,250.518738 
	C127.280937,251.365128 126.698830,251.457428 125.744476,250.929016 
	C124.116463,246.664841 124.058784,242.732834 125.705444,238.435455 
	C126.900139,235.276596 125.960327,232.478912 125.968689,229.683212 
	C126.048805,202.886551 126.103760,176.089218 125.966721,149.293091 
	C125.942734,144.602509 127.397774,141.779526 131.724716,139.432968 
	C144.662430,132.416656 157.464127,125.111809 169.977341,117.367691 
	C175.592636,113.892532 180.055939,115.368973 184.693176,118.442268 
	C193.383789,124.201927 202.594849,129.043076 211.704651,134.069580 
	C213.684265,135.161865 216.028870,135.874695 216.970444,138.664932 
	C207.233002,135.140427 198.724045,128.966125 189.544769,124.018982 
	C188.968582,123.708435 188.460266,123.273300 187.888657,122.952682 
	C175.010925,115.729492 175.172226,115.983551 161.893784,124.507484 
	C153.128113,130.134491 143.841354,134.956253 134.728882,140.032593 
	C131.936020,141.588440 129.464066,143.346436 128.095444,146.660187 
	C128.855392,149.693634 128.349197,152.421707 128.290253,155.554535 
z"/>
<path fill="#592EBF" opacity="1.000000" stroke="none" 
	d="
M192.680664,163.746658 
	C192.480896,167.200989 189.193939,167.552399 187.206146,168.913071 
	C184.542084,170.736679 181.585297,172.274689 178.773560,173.990219 
	C175.348160,176.080170 173.024811,174.943649 173.103409,171.165207 
	C173.289413,162.220444 172.333862,153.261475 173.876694,144.314346 
	C174.483124,140.797470 175.828583,140.368103 178.447464,141.812210 
	C186.352829,146.171402 194.199188,150.637772 202.060669,155.076294 
	C204.449738,156.425125 204.553329,158.294983 202.507980,159.810349 
	C199.898346,161.743790 197.463043,164.285110 193.359344,163.989624 
	C192.672455,161.304245 195.008820,160.841232 196.556229,159.827530 
	C198.808502,158.352097 198.748596,157.090454 196.448151,155.883286 
	C190.135803,152.570908 184.151077,148.676834 177.726715,145.291916 
	C176.316452,146.350647 176.741165,147.970200 176.388885,149.683945 
	C176.318344,151.853439 176.336838,153.655060 176.374542,155.856628 
	C176.370544,158.955765 176.353226,161.654968 176.368927,164.737228 
	C176.558548,167.033325 175.865463,168.983536 176.585297,171.081497 
	C180.230377,169.004623 183.973511,167.392181 187.355392,165.076416 
	C188.826843,164.068817 190.439529,163.142822 192.680664,163.746658 
z"/>
<path fill="#7138E6" opacity="1.000000" stroke="none" 
	d="
M125.610535,238.046814 
	C126.003250,242.070251 126.015556,246.070587 126.031464,250.533630 
	C127.212173,252.601440 128.185410,254.263870 127.278328,256.698853 
	C123.963127,253.590851 119.700676,252.126404 115.451309,250.026062 
	C113.834137,245.311783 114.784203,240.561935 114.832672,235.451279 
	C118.982117,234.285599 121.629143,237.780640 125.610535,238.046814 
z"/>
<path fill="#4E21B4" opacity="1.000000" stroke="none" 
	d="
M136.623901,150.597107 
	C137.377533,147.846207 138.406082,145.951614 141.576019,145.963165 
	C136.856415,150.142136 138.049332,155.934143 138.044174,161.379745 
	C138.018372,188.607773 138.035736,215.835831 138.068268,243.531586 
	C138.995804,245.221771 139.273224,246.555603 138.626541,248.399292 
	C138.206711,248.950134 137.981400,249.122192 137.349564,249.169449 
	C136.943054,249.044632 136.913452,249.033630 136.897675,249.032715 
	C136.100998,246.231796 136.708038,243.371887 136.515625,240.065247 
	C136.515762,214.520493 136.515701,189.456955 136.515274,163.911819 
	C136.528732,159.308151 136.489456,155.185959 136.623901,150.597107 
z"/>
<path fill="#4E21B4" opacity="1.000000" stroke="none" 
	d="
M149.738464,157.290222 
	C150.026779,188.338837 150.012070,219.671310 149.968369,251.003754 
	C149.965836,252.818680 149.727737,254.633270 149.301575,256.744873 
	C147.093277,254.762085 147.335541,252.302658 148.683594,249.386078 
	C148.986923,220.333221 148.996216,191.669067 149.037582,163.004990 
	C149.040192,161.194504 149.292770,159.384384 149.738464,157.290222 
z"/>
<path fill="#4E21B4" opacity="1.000000" stroke="none" 
	d="
M114.310944,233.217560 
	C114.084473,201.237396 114.056030,169.534698 114.082054,137.349548 
	C115.597748,138.418228 115.008911,140.347519 115.010788,142.116837 
	C115.042656,172.113983 115.031502,202.111176 115.028587,232.580292 
	C114.854530,233.199814 114.681740,233.347397 114.310944,233.217560 
z"/>
<path fill="#5C1AE5" opacity="1.000000" stroke="none" 
	d="
M148.583618,248.997437 
	C148.983063,251.379440 148.995834,253.761551 149.006226,256.592651 
	C148.840118,257.591644 148.676361,258.141602 148.273712,258.862610 
	C146.114304,260.489746 144.654449,259.466675 143.385651,258.059052 
	C142.075363,256.605377 140.801468,255.127029 139.000061,253.635620 
	C137.927002,252.287903 137.937073,251.043289 138.016769,249.414612 
	C138.027008,247.641876 138.032715,246.240021 138.068542,244.418732 
	C141.591141,245.409988 143.773697,249.467270 148.583618,248.997437 
z"/>
<path fill="#5B1AE2" opacity="1.000000" stroke="none" 
	d="
M162.421814,267.034912 
	C162.075775,260.575928 162.044464,254.264954 162.041916,247.489655 
	C163.521210,248.340012 162.959335,250.083328 162.981705,251.657791 
	C163.096558,259.743408 164.839020,261.723450 173.503021,262.989380 
	C173.908463,265.021332 173.932205,267.057312 173.934174,269.528320 
	C171.431915,271.947113 169.187729,270.577423 167.074951,269.315674 
	C165.673294,268.478577 164.582321,267.098358 162.421814,267.034912 
z"/>
<path fill="#592EBF" opacity="1.000000" stroke="none" 
	d="
M207.852814,170.743439 
	C204.643936,175.080353 199.461365,176.439041 195.175980,179.184402 
	C189.222290,182.998550 182.917435,186.264542 176.444138,189.914383 
	C175.930130,190.218903 175.734909,190.374207 175.267212,190.273010 
	C175.447586,185.330551 180.054672,185.714661 182.756378,183.996201 
	C190.233932,179.239899 198.070770,175.047058 205.793884,170.681549 
	C206.287140,170.402725 207.021545,170.550522 207.852814,170.743439 
z"/>
<path fill="#592EBF" opacity="1.000000" stroke="none" 
	d="
M162.365768,226.701492 
	C162.055023,202.650803 162.025330,178.292343 161.933212,153.467163 
	C163.278015,153.867218 163.006622,155.289734 163.007385,156.584091 
	C163.020554,179.207352 163.020981,201.830597 163.003098,224.453842 
	C163.002579,225.100571 162.770767,225.747101 162.365768,226.701492 
z"/>
<path fill="#592EBF" opacity="1.000000" stroke="none" 
	d="
M223.382294,172.984894 
	C223.308929,172.248856 223.982819,171.479797 223.923050,170.772751 
	C223.737000,168.570984 225.277542,165.606415 223.089508,164.350525 
	C221.212158,163.272980 219.304840,165.577393 217.509232,166.696915 
	C215.768112,167.782440 214.218826,169.562653 211.389862,168.979980 
	C213.725815,164.489410 218.651978,163.385529 222.980331,161.372986 
	C223.273209,161.236816 223.892395,161.644897 224.286423,161.909286 
	C226.944778,163.693008 226.621765,170.726273 223.382294,172.984894 
z"/>
<path fill="#592EBF" opacity="1.000000" stroke="none" 
	d="
M150.823914,140.282440 
	C158.790039,135.710358 166.595734,131.371887 174.760406,127.137466 
	C174.601135,130.300720 171.667252,130.646164 169.645386,131.756378 
	C163.756927,134.989731 158.244354,138.986359 151.348022,140.998474 
	C150.867386,140.834137 150.765427,140.675079 150.823914,140.282440 
z"/>
<path fill="#592EBF" opacity="1.000000" stroke="none" 
	d="
M201.373718,185.995178 
	C204.856888,182.387222 209.835526,180.662552 214.630432,178.006607 
	C211.951828,182.933502 206.652527,184.146332 201.373718,185.995178 
z"/>
<path fill="#7753CC" opacity="1.000000" stroke="none" 
	d="
M114.051056,233.409943 
	C114.112915,232.940109 114.568024,233.010101 114.797668,233.031158 
	C115.027786,233.495514 115.028252,233.938797 115.057449,234.715042 
	C115.073975,239.716385 115.061768,244.384781 115.074066,249.516693 
	C115.068481,252.371658 115.038391,254.763092 115.001205,257.605713 
	C114.994125,258.056854 114.572052,258.016357 114.363602,257.980408 
	C114.099831,249.922913 114.044518,241.901352 114.051056,233.409943 
z"/>
<path fill="#592EBF" opacity="1.000000" stroke="none" 
	d="
M189.329742,192.976410 
	C192.038254,189.539963 196.376419,188.162231 200.608246,186.003693 
	C198.540558,190.451157 194.012878,191.545395 189.329742,192.976410 
z"/>
<path fill="#592EBF" opacity="1.000000" stroke="none" 
	d="
M213.040039,148.362503 
	C216.240051,149.491928 219.252808,148.816513 222.514618,146.982346 
	C223.266617,146.664795 223.693680,146.514130 224.499207,146.645767 
	C221.639664,151.329651 217.196121,152.069748 213.040039,148.362503 
z"/>
<path fill="#592EBF" opacity="1.000000" stroke="none" 
	d="
M175.710693,197.566589 
	C176.967667,200.254547 178.150452,197.847977 179.622070,197.971588 
	C179.393692,200.350372 177.586960,201.933441 175.430252,201.378952 
	C173.362274,200.847321 174.017426,198.293900 173.999374,196.527100 
	C173.982544,194.880112 174.188110,193.230835 174.554184,191.268875 
	C176.165649,192.908951 175.137009,195.137802 175.710693,197.566589 
z"/>
<path fill="#592EBF" opacity="1.000000" stroke="none" 
	d="
M180.347382,197.978455 
	C182.395248,195.789246 185.157501,194.123291 188.579651,192.932251 
	C187.663239,196.967392 184.558121,198.049789 180.347382,197.978455 
z"/>
<path fill="#592EBF" opacity="1.000000" stroke="none" 
	d="
M215.381592,178.009369 
	C216.894958,175.569199 219.495346,174.173370 222.632355,173.004639 
	C222.143539,176.892822 218.672379,177.053925 215.381592,178.009369 
z"/>
<path fill="#4E21B4" opacity="1.000000" stroke="none" 
	d="
M142.363129,145.975830 
	C143.682922,143.241592 146.975403,142.851929 149.599884,140.966644 
	C148.935394,144.621109 146.123306,145.714630 142.363129,145.975830 
z"/>
<path fill="#592EBF" opacity="1.000000" stroke="none" 
	d="
M223.925262,142.699631 
	C221.100891,143.118576 219.315964,141.084854 217.101562,139.334259 
	C219.991104,138.662476 222.261078,139.855148 223.925262,142.699631 
z"/>
<path fill="#592EBF" opacity="1.000000" stroke="none" 
	d="
M187.058868,133.313141 
	C189.794769,133.054550 191.200699,135.883362 193.915222,136.623199 
	C191.159576,137.029007 188.407059,136.858292 187.058868,133.313141 
z"/>
<path fill="#592EBF" opacity="1.000000" stroke="none" 
	d="
M178.046875,128.340576 
	C179.789719,128.419876 181.573318,128.852982 182.975037,130.663788 
	C181.064850,131.031509 179.171051,130.751022 178.046875,128.340576 
z"/>
<path fill="#592EBF" opacity="1.000000" stroke="none" 
	d="
M194.053619,137.339645 
	C196.222702,136.576233 196.900925,139.124527 198.889282,139.699860 
	C197.046021,139.953461 194.835068,140.387329 194.053619,137.339645 
z"/>
<path fill="#A890D9" opacity="1.000000" stroke="none" 
	d="
M175.963562,197.499023 
	C174.041290,196.117905 175.557983,193.789551 174.879425,191.371185 
	C174.812576,190.955185 174.901382,190.485245 174.948059,190.250885 
	C175.184189,190.001465 175.373611,189.986435 175.844208,190.017502 
	C176.096863,192.398010 176.068344,194.732422 175.963562,197.499023 
z"/>
<path fill="#592EBF" opacity="1.000000" stroke="none" 
	d="
M205.058685,144.409271 
	C206.816360,143.560455 208.228775,144.751846 209.925079,145.592377 
	C208.350662,145.760925 206.375763,146.810608 205.058685,144.409271 
z"/>
<path fill="#592EBF" opacity="1.000000" stroke="none" 
	d="
M210.067596,146.312729 
	C211.292923,145.811096 212.138901,146.436340 212.914795,147.688263 
	C211.841904,147.966705 210.528351,148.262344 210.067596,146.312729 
z"/>
<path fill="#A890D9" opacity="1.000000" stroke="none" 
	d="
M224.885223,146.434021 
	C224.396255,146.844604 223.967209,146.917496 223.211578,146.970764 
	C223.375076,145.928680 224.283829,145.056076 224.032211,143.415924 
	C225.258560,143.802109 225.000443,144.979538 224.885223,146.434021 
z"/>
<path fill="#5B1AE2" opacity="1.000000" stroke="none" 
	d="
M162.331726,233.784195 
	C162.079849,233.234650 162.057358,232.499100 162.070190,231.397369 
	C163.048477,231.746445 163.150848,232.610901 162.331726,233.784195 
z"/>
<path fill="#5B1AE2" opacity="1.000000" stroke="none" 
	d="
M162.320435,239.823975 
	C162.093201,239.538956 162.069397,239.106537 162.079956,238.350967 
	C162.755524,238.452057 163.021133,238.969559 162.320435,239.823975 
z"/>
<path fill="#592EBF" opacity="1.000000" stroke="none" 
	d="
M186.055923,132.389252 
	C186.250839,132.266373 186.587997,132.334610 186.987640,132.682617 
	C186.716309,132.946198 186.432327,132.818878 186.055923,132.389252 
z"/>
<path fill="#4E21B4" opacity="1.000000" stroke="none" 
	d="
M150.730469,140.081207 
	C150.984360,140.048843 150.971405,140.521027 150.970367,140.757111 
	C150.802521,141.001678 150.635681,141.010162 150.219818,140.990021 
	C150.139389,140.678802 150.307983,140.396194 150.730469,140.081207 
z"/>
<path fill="#592EBF" opacity="1.000000" stroke="none" 
	d="
M200.061142,140.378082 
	C200.257858,140.255188 200.608505,140.330902 201.036163,140.696609 
	C200.813812,140.849976 200.514435,140.713333 200.061142,140.378082 
z"/>
<path fill="#592EBF" opacity="1.000000" stroke="none" 
	d="
M202.099777,142.206543 
	C202.298141,142.135422 202.601761,142.302704 202.989319,142.726044 
	C202.783844,142.803040 202.494446,142.623978 202.099777,142.206543 
z"/>
<path fill="#592EBF" opacity="1.000000" stroke="none" 
	d="
M210.775070,169.081543 
	C210.842941,169.296585 210.673813,169.596909 210.237076,169.934677 
	C210.159012,169.703690 210.348541,169.435257 210.775070,169.081543 
z"/>
<path fill="#592EBF" opacity="1.000000" stroke="none" 
	d="
M177.063507,127.436714 
	C177.257553,127.314720 177.582626,127.381081 177.961182,127.721130 
	C177.692902,127.978951 177.419525,127.855705 177.063507,127.436714 
z"/>
<path fill="#592EBF" opacity="1.000000" stroke="none" 
	d="
M184.048553,131.361053 
	C184.243912,131.254303 184.582855,131.348602 184.988983,131.723511 
	C184.713608,131.963486 184.425583,131.816162 184.048553,131.361053 
z"/>
<path fill="#592EBF" opacity="1.000000" stroke="none" 
	d="
M229.556335,230.214844 
	C229.883255,255.000397 229.959534,280.119537 229.996399,305.238739 
	C230.020340,321.543884 229.986801,337.849121 229.910965,354.631714 
	C228.614258,353.885315 228.968597,352.315826 228.967972,350.854492 
	C228.951401,311.735535 228.949280,272.616577 228.963455,233.497604 
	C228.963821,232.514526 229.175735,231.531525 229.556335,230.214844 
z"/>
<path fill="#7138E6" opacity="1.000000" stroke="none" 
	d="
M138.569138,252.766525 
	C141.367294,253.087845 142.656723,254.910049 143.804764,256.693176 
	C144.682846,258.057037 145.578354,259.049652 147.662979,259.008575 
	C146.629120,262.175690 143.631302,262.994080 140.403320,264.031372 
	C137.224228,262.123077 134.411621,260.194794 131.281403,258.133850 
	C132.308792,254.729523 135.190689,253.514160 138.569138,252.766525 
z"/>
<path fill="#7753CC" opacity="1.000000" stroke="none" 
	d="
M138.904816,252.626633 
	C136.375702,254.476547 133.872437,255.968689 131.166473,257.731018 
	C129.799484,257.851288 128.635178,257.701355 127.239563,257.285034 
	C127.166794,255.185684 126.757355,253.450333 126.069427,251.376617 
	C126.430794,250.995636 126.826530,250.994949 127.519318,250.987808 
	C127.834305,255.140625 129.673416,256.033508 133.128326,253.904556 
	C134.787308,252.882309 136.396500,251.779175 136.977173,249.403458 
	C137.122696,249.042282 137.302322,249.039932 137.751617,249.040665 
	C139.145447,249.887283 138.919800,251.111420 138.904816,252.626633 
z"/>
<path fill="#7138E6" opacity="1.000000" stroke="none" 
	d="
M162.059875,267.197876 
	C163.295227,265.586060 164.590500,264.419342 165.972321,266.547119 
	C167.694443,269.198883 170.248596,269.891113 173.527039,269.973602 
	C174.171921,272.001678 173.267120,273.766113 172.306564,275.797668 
	C165.725845,279.066589 163.996475,274.144135 161.404175,270.062561 
	C161.060516,269.996490 161.073288,269.540283 161.101608,269.314087 
	C161.424164,268.561493 161.718414,268.035156 162.059875,267.197876 
z"/>
<path fill="#BDABFF" opacity="1.000000" stroke="none" 
	d="
M136.432098,163.409256 
	C136.868179,188.328873 136.903244,213.731537 136.554138,239.587524 
	C136.123657,214.658005 136.077362,189.275146 136.432098,163.409256 
z"/>
<path fill="#FFFFFF" opacity="1.000000" stroke="none" 
	d="
M136.903458,162.474152 
	C136.833115,162.926224 136.501770,162.947479 136.335846,162.953217 
	C136.163345,158.873474 136.156754,154.787979 136.430573,150.416397 
	C136.798569,154.094223 136.886185,158.058167 136.903458,162.474152 
z"/>
<path fill="#FFFFFF" opacity="1.000000" stroke="none" 
	d="
M128.501984,155.797089 
	C128.100647,153.289825 128.063919,150.597565 128.081238,147.458710 
	C130.010406,149.740036 128.661209,152.742188 128.501984,155.797089 
z"/>
<path fill="#FFFFFF" opacity="1.000000" stroke="none" 
	d="
M136.091217,240.472977 
	C136.169952,240.040863 136.504852,240.054474 136.672089,240.065338 
	C136.895294,242.763596 136.951248,245.450989 136.944550,248.585098 
	C134.969299,246.496521 136.463623,243.596741 136.091217,240.472977 
z"/>
<path fill="#000000" opacity="1.000000" stroke="none" 
	d="
M192.984283,163.979858 
	C187.921448,165.065079 184.351013,169.005554 179.685532,170.921234 
	C178.197891,171.532074 176.789352,172.039093 175.024841,172.412750 
	C175.024841,170.451233 175.024841,168.635086 175.074341,166.402328 
	C175.954269,163.034027 175.306946,160.017624 175.515350,156.630707 
	C175.490448,154.057755 175.571930,151.891968 175.272247,149.370682 
	C175.503708,147.152069 175.926346,145.290482 176.421402,143.109833 
	C183.759689,147.319672 190.817200,151.636932 198.135086,155.455170 
	C201.888046,157.413330 200.722275,158.656128 198.217880,160.274475 
	C196.580185,161.332779 194.888123,162.306946 193.094101,163.641876 
	C192.967773,163.964951 193.000839,163.998093 192.984283,163.979858 
z"/>
<path fill="#FFFFFF" opacity="1.000000" stroke="none" 
	d="
M175.432037,156.502884 
	C175.843918,159.228363 175.857697,162.415283 175.497650,165.793945 
	C175.093857,162.978577 175.063889,159.971451 175.432037,156.502884 
z"/>
<path fill="#BDABFF" opacity="1.000000" stroke="none" 
	d="
M175.899155,155.622925 
	C175.830139,156.041458 175.498566,156.054214 175.333084,156.065079 
	C175.126312,154.015640 175.085037,151.955353 175.062424,149.454346 
	C177.035629,150.839539 175.483551,153.167892 175.899155,155.622925 
z"/>
<path fill="#5C18E8" opacity="1.000000" stroke="none" 
	d="
M123.463364,239.441391 
	C123.524567,239.403259 123.402161,239.479523 123.463364,239.441391 
z"/>
</svg>