<svg width="100" height="107" viewBox="0 0 100 107" fill="none" xmlns="http://www.w3.org/2000/svg">
<path fill-rule="evenodd" clip-rule="evenodd" d="M25.6424 85.8469C25.6424 80.4067 27.8036 75.1893 31.6504 71.3424C35.4972 67.4956 40.7147 65.3345 46.1549 65.3345C51.5951 65.3345 56.8126 67.4956 60.6594 71.3424C64.5062 75.1893 66.6673 80.4067 66.6673 85.8469C66.6673 91.2872 64.5062 96.5046 60.6594 100.351C56.8126 104.198 51.5951 106.359 46.1549 106.359C40.7147 106.359 35.4972 104.198 31.6504 100.351C27.8036 96.5046 25.6424 91.2872 25.6424 85.8469ZM46.1549 73.0266C42.7547 73.0266 39.4939 74.3773 37.0896 76.7816C34.6853 79.1859 33.3346 82.4468 33.3346 85.8469C33.3346 89.2471 34.6853 92.508 37.0896 94.9122C39.4939 97.3165 42.7547 98.6672 46.1549 98.6672C49.555 98.6672 52.8159 97.3165 55.2202 94.9122C57.6245 92.508 58.9752 89.2471 58.9752 85.8469C58.9752 82.4468 57.6245 79.1859 55.2202 76.7816C52.8159 74.3773 49.555 73.0266 46.1549 73.0266Z" fill="url(#paint0_linear_935_551)"/>
<path fill-rule="evenodd" clip-rule="evenodd" d="M25.6424 85.8469C25.6424 80.4067 27.8036 75.1893 31.6504 71.3424C35.4972 67.4956 40.7147 65.3345 46.1549 65.3345C51.5951 65.3345 56.8126 67.4956 60.6594 71.3424C64.5062 75.1893 66.6673 80.4067 66.6673 85.8469C66.6673 91.2872 64.5062 96.5046 60.6594 100.351C56.8126 104.198 51.5951 106.359 46.1549 106.359C40.7147 106.359 35.4972 104.198 31.6504 100.351C27.8036 96.5046 25.6424 91.2872 25.6424 85.8469ZM46.1549 73.0266C42.7547 73.0266 39.4939 74.3773 37.0896 76.7816C34.6853 79.1859 33.3346 82.4468 33.3346 85.8469C33.3346 89.2471 34.6853 92.508 37.0896 94.9122C39.4939 97.3165 42.7547 98.6672 46.1549 98.6672C49.555 98.6672 52.8159 97.3165 55.2202 94.9122C57.6245 92.508 58.9752 89.2471 58.9752 85.8469C58.9752 82.4468 57.6245 79.1859 55.2202 76.7816C52.8159 74.3773 49.555 73.0266 46.1549 73.0266Z" fill="url(#paint1_linear_935_551)" fill-opacity="0.8"/>
<path d="M31.1602 15.6849C32.0016 13.9377 33.2565 12.4222 34.8161 11.2696C36.3757 10.117 38.1929 9.36227 40.1101 9.07077C42.0273 8.77927 43.9867 8.95983 45.8184 9.59678C47.65 10.2337 49.2987 11.3079 50.6214 12.726L86.549 51.2176C87.8462 52.6077 88.7922 54.2879 89.308 56.1179C89.8238 57.948 89.8944 59.8748 89.514 61.7378C89.1336 63.6007 88.3132 65.3456 87.1212 66.8269C85.9292 68.3082 84.4002 69.483 82.6619 70.2532L20.3501 97.863C18.6877 98.5987 16.8451 98.8272 15.0534 98.5197C13.2616 98.2123 11.6006 97.3826 10.2785 96.1348L2.89917 89.1811C1.47243 87.8362 0.510974 86.0719 0.154153 84.144C-0.202668 82.2161 0.0636776 80.2246 0.914591 78.4582L31.1602 15.6849Z" fill="url(#paint2_linear_935_551)"/>
<path d="M31.1602 15.6849C32.0016 13.9377 33.2565 12.4222 34.8161 11.2696C36.3757 10.117 38.1929 9.36227 40.1101 9.07077C42.0273 8.77927 43.9867 8.95983 45.8184 9.59678C47.65 10.2337 49.2987 11.3079 50.6214 12.726L86.549 51.2176C87.8462 52.6077 88.7922 54.2879 89.308 56.1179C89.8238 57.948 89.8944 59.8748 89.514 61.7378C89.1336 63.6007 88.3132 65.3456 87.1212 66.8269C85.9292 68.3082 84.4002 69.483 82.6619 70.2532L20.3501 97.863C18.6877 98.5987 16.8451 98.8272 15.0534 98.5197C13.2616 98.2123 11.6006 97.3826 10.2785 96.1348L2.89917 89.1811C1.47243 87.8362 0.510974 86.0719 0.154153 84.144C-0.202668 82.2161 0.0636776 80.2246 0.914591 78.4582L31.1602 15.6849Z" fill="url(#paint3_linear_935_551)" fill-opacity="0.8"/>
<path d="M72.8824 5.0131C73.1893 4.04956 73.1043 3.00394 72.6459 2.10259C72.1875 1.20124 71.3925 0.516688 70.4331 0.197115C69.4738 -0.122458 68.4271 -0.0513367 67.5198 0.395083C66.6124 0.841503 65.9174 1.6273 65.5851 2.58238L61.739 14.1155C61.4322 15.079 61.5172 16.1247 61.9756 17.026C62.434 17.9274 63.2289 18.6119 64.1883 18.9315C65.1477 19.2511 66.1944 19.1799 67.1017 18.7335C68.0091 18.2871 68.7041 17.5013 69.0363 16.5462L72.8824 5.0131ZM96.3077 4.92593C97.0279 5.64707 97.4325 6.62461 97.4325 7.64383C97.4325 8.66304 97.0279 9.64058 96.3077 10.3617L83.4874 23.182C83.1353 23.5599 82.7107 23.863 82.2389 24.0732C81.7671 24.2834 81.2578 24.3964 80.7414 24.4055C80.225 24.4146 79.712 24.3196 79.2331 24.1262C78.7542 23.9328 78.3192 23.6449 77.9539 23.2796C77.5887 22.9144 77.3008 22.4794 77.1074 22.0005C76.9139 21.5216 76.8189 21.0086 76.828 20.4922C76.8372 19.9758 76.9502 19.4665 77.1604 18.9947C77.3706 18.5229 77.6737 18.0983 78.0516 17.7462L90.8719 4.92593C91.593 4.20568 92.5705 3.80112 93.5898 3.80112C94.609 3.80112 95.5865 4.20568 96.3077 4.92593ZM82.0515 35.8485C82.0515 34.8284 82.4567 33.8501 83.178 33.1289C83.8993 32.4076 84.8775 32.0024 85.8976 32.0024H96.1538C97.1739 32.0024 98.1521 32.4076 98.8734 33.1289C99.5947 33.8501 99.9999 34.8284 99.9999 35.8485C99.9999 36.8685 99.5947 37.8468 98.8734 38.568C98.1521 39.2893 97.1739 39.6945 96.1538 39.6945H85.8976C84.8775 39.6945 83.8993 39.2893 83.178 38.568C82.4567 37.8468 82.0515 36.8685 82.0515 35.8485Z" fill="url(#paint4_radial_935_551)"/>
<defs>
<linearGradient id="paint0_linear_935_551" x1="75.4569" y1="132.733" x2="57.8008" y2="89.3546" gradientUnits="userSpaceOnUse">
<stop stop-color="#43E5CA"/>
<stop offset="1" stop-color="#0C74A1"/>
</linearGradient>
<linearGradient id="paint1_linear_935_551" x1="37.3653" y1="71.1959" x2="54.9599" y2="115.144" gradientUnits="userSpaceOnUse">
<stop offset="0.08" stop-color="#E362F8"/>
<stop offset="0.656" stop-color="#9966FF" stop-opacity="0"/>
</linearGradient>
<linearGradient id="paint2_linear_935_551" x1="3.20686" y1="25.7566" x2="65.1237" y2="90.1144" gradientUnits="userSpaceOnUse">
<stop stop-color="#43E5CA"/>
<stop offset="1" stop-color="#1384B1"/>
</linearGradient>
<linearGradient id="paint3_linear_935_551" x1="44.883" y1="59.3919" x2="84.1439" y2="123.893" gradientUnits="userSpaceOnUse">
<stop stop-color="#9966FF" stop-opacity="0"/>
<stop offset="0.63" stop-color="#E362F8"/>
</linearGradient>
<radialGradient id="paint4_radial_935_551" cx="0" cy="0" r="1" gradientUnits="userSpaceOnUse" gradientTransform="translate(21.6013 80.9605) rotate(-45.9373) scale(119.112 119.131)">
<stop offset="0.623" stop-color="#FB5937"/>
<stop offset="0.935" stop-color="#FFA43D"/>
</radialGradient>
</defs>
</svg>
